M48
;Layer_Color=9474304
;FILE_FORMAT=2:5
INCH,LZ
;TYPE=PLATED
T1F00S00C0.02800
T2F00S00C0.03500
%
T01
X007Y00105
X007375Y004925
X00615Y0049
X00645Y0073
X0067Y0083
X0034Y00865
X00255Y00875
T02
X0005Y0015
Y0025
Y0035
Y0045
Y0055
Y0065
Y0075
Y0085
X0095
Y0075
Y0065
Y0055
Y0045
Y0035
Y0025
Y0015
M30
