G04*
G04 #@! TF.GenerationSoftware,Altium Limited,Altium Designer,22.3.1 (43)*
G04*
G04 Layer_Color=16711935*
%FSLAX25Y25*%
%MOIN*%
G70*
G04*
G04 #@! TF.SameCoordinates,35B4740E-92D2-49D1-AA18-A508E5057BF1*
G04*
G04*
G04 #@! TF.FilePolarity,Positive*
G04*
G01*
G75*
%ADD12C,0.00787*%
%ADD48C,0.00394*%
D12*
X66909Y61902D02*
Y64264D01*
X68090D01*
Y61902D02*
Y64264D01*
X66909Y61902D02*
X68090D01*
D48*
X49610Y56303D02*
G03*
X49610Y56303I-1969J0D01*
G01*
X44098Y52760D02*
X56303D01*
X44098Y64965D02*
X56303D01*
X44098Y52760D02*
Y64965D01*
X56303Y52760D02*
Y64965D01*
X71441Y99968D02*
X75181Y103709D01*
X71441Y92291D02*
Y103709D01*
Y92291D02*
X76559D01*
Y103709D01*
X71441D02*
X76559D01*
X18457Y94398D02*
X25543D01*
X18457Y106602D02*
X25543D01*
Y94398D02*
Y106602D01*
X18457Y94398D02*
Y106602D01*
X49539Y92563D02*
Y100437D01*
X54461D01*
Y92563D02*
Y100437D01*
X49539Y92563D02*
X54461D01*
X85465Y100461D02*
X93535D01*
Y95539D02*
Y100461D01*
X85465Y95539D02*
X93535D01*
X85465D02*
Y100461D01*
X44075Y93350D02*
Y99650D01*
X40925Y93350D02*
X44075D01*
X40925D02*
Y99650D01*
X44075D01*
X43024D02*
X44075Y98598D01*
X32425Y97850D02*
Y104150D01*
X35575D01*
Y97850D02*
Y104150D01*
X32425Y97850D02*
X35575D01*
X11075Y96350D02*
Y102650D01*
X7925Y96350D02*
X11075D01*
X7925D02*
Y102650D01*
X11075D01*
X51468Y35059D02*
X55209Y31319D01*
X43791Y35059D02*
X55209D01*
X43791Y29941D02*
Y35059D01*
Y29941D02*
X55209D01*
Y35059D01*
X34468Y40559D02*
X38209Y36819D01*
X26791Y40559D02*
X38209D01*
X26791Y35441D02*
Y40559D01*
Y35441D02*
X38209D01*
Y40559D01*
X42819Y68791D02*
X46559Y72531D01*
Y68791D02*
Y80209D01*
X41441D02*
X46559D01*
X41441Y68791D02*
Y80209D01*
Y68791D02*
X46559D01*
X45563Y42539D02*
X53437D01*
X45563D02*
Y47461D01*
X53437D01*
Y42539D02*
Y47461D01*
X47039Y13563D02*
Y21437D01*
X51961D01*
Y13563D02*
Y21437D01*
X47039Y13563D02*
X51961D01*
X28563Y48539D02*
X36437D01*
X28563D02*
Y53461D01*
X36437D01*
Y48539D02*
Y53461D01*
X35039Y19063D02*
Y26937D01*
X39961D01*
Y19063D02*
Y26937D01*
X35039Y19063D02*
X39961D01*
X58961Y70465D02*
Y78535D01*
X54039Y70465D02*
X58961D01*
X54039D02*
Y78535D01*
X58961D01*
X24465Y72039D02*
X32535D01*
X24465D02*
Y76961D01*
X32535D01*
Y72039D02*
Y76961D01*
X59539Y94028D02*
Y102098D01*
X64461D01*
Y94028D02*
Y102098D01*
X59539Y94028D02*
X64461D01*
M02*
