G04*
G04 #@! TF.GenerationSoftware,Altium Limited,Altium Designer,22.3.1 (43)*
G04*
G04 Layer_Physical_Order=2*
G04 Layer_Color=36540*
%FSLAX25Y25*%
%MOIN*%
G70*
G04*
G04 #@! TF.SameCoordinates,7A749ED4-F297-4BF6-9624-BD1DB0530FDD*
G04*
G04*
G04 #@! TF.FilePolarity,Positive*
G04*
G01*
G75*
%ADD47C,0.05000*%
G36*
X87000Y5500D02*
X10856D01*
X10505Y5856D01*
X12000Y108000D01*
X12500Y108500D01*
X87000D01*
Y5500D01*
D02*
G37*
%LPC*%
G36*
X34500Y89990D02*
Y87000D01*
X37490D01*
X37262Y87851D01*
X36801Y88649D01*
X36149Y89301D01*
X35351Y89762D01*
X34500Y89990D01*
D02*
G37*
G36*
X33500D02*
X32649Y89762D01*
X31851Y89301D01*
X31199Y88649D01*
X30738Y87851D01*
X30511Y87000D01*
X33500D01*
Y89990D01*
D02*
G37*
G36*
X25934Y90800D02*
X25065D01*
X24226Y90575D01*
X23474Y90141D01*
X22859Y89526D01*
X22425Y88774D01*
X22200Y87934D01*
Y87066D01*
X22425Y86226D01*
X22859Y85474D01*
X23474Y84859D01*
X24226Y84425D01*
X25065Y84200D01*
X25934D01*
X26774Y84425D01*
X27526Y84859D01*
X28141Y85474D01*
X28575Y86226D01*
X28800Y87066D01*
Y87934D01*
X28575Y88774D01*
X28141Y89526D01*
X27526Y90141D01*
X26774Y90575D01*
X25934Y90800D01*
D02*
G37*
G36*
X67500Y86489D02*
Y83500D01*
X70490D01*
X70262Y84351D01*
X69801Y85149D01*
X69149Y85801D01*
X68351Y86261D01*
X67500Y86489D01*
D02*
G37*
G36*
X66500D02*
X65649Y86261D01*
X64851Y85801D01*
X64199Y85149D01*
X63739Y84351D01*
X63511Y83500D01*
X66500D01*
Y86489D01*
D02*
G37*
G36*
X37490Y86000D02*
X34500D01*
Y83011D01*
X35351Y83239D01*
X36149Y83699D01*
X36801Y84351D01*
X37262Y85149D01*
X37490Y86000D01*
D02*
G37*
G36*
X33500D02*
X30511D01*
X30738Y85149D01*
X31199Y84351D01*
X31851Y83699D01*
X32649Y83239D01*
X33500Y83011D01*
Y86000D01*
D02*
G37*
G36*
X70490Y82500D02*
X67500D01*
Y79510D01*
X68351Y79738D01*
X69149Y80199D01*
X69801Y80851D01*
X70262Y81649D01*
X70490Y82500D01*
D02*
G37*
G36*
X66500D02*
X63511D01*
X63739Y81649D01*
X64199Y80851D01*
X64851Y80199D01*
X65649Y79738D01*
X66500Y79510D01*
Y82500D01*
D02*
G37*
G36*
X64934Y76300D02*
X64065D01*
X63226Y76075D01*
X62474Y75641D01*
X61859Y75026D01*
X61425Y74274D01*
X61200Y73435D01*
Y72566D01*
X61425Y71726D01*
X61859Y70974D01*
X62474Y70359D01*
X63226Y69925D01*
X64065Y69700D01*
X64934D01*
X65774Y69925D01*
X66526Y70359D01*
X67141Y70974D01*
X67575Y71726D01*
X67800Y72566D01*
Y73435D01*
X67575Y74274D01*
X67141Y75026D01*
X66526Y75641D01*
X65774Y76075D01*
X64934Y76300D01*
D02*
G37*
G36*
X74185Y52550D02*
X73316D01*
X72476Y52325D01*
X71724Y51891D01*
X71109Y51276D01*
X70675Y50524D01*
X70450Y49684D01*
Y48816D01*
X70675Y47976D01*
X71109Y47224D01*
X71724Y46609D01*
X72476Y46175D01*
X73316Y45950D01*
X74185D01*
X75024Y46175D01*
X75776Y46609D01*
X76391Y47224D01*
X76825Y47976D01*
X77050Y48816D01*
Y49684D01*
X76825Y50524D01*
X76391Y51276D01*
X75776Y51891D01*
X75024Y52325D01*
X74185Y52550D01*
D02*
G37*
G36*
X61935Y52300D02*
X61066D01*
X60226Y52075D01*
X59474Y51641D01*
X58859Y51026D01*
X58425Y50274D01*
X58200Y49434D01*
Y48566D01*
X58425Y47726D01*
X58859Y46974D01*
X59474Y46359D01*
X60226Y45925D01*
X61066Y45700D01*
X61935D01*
X62774Y45925D01*
X63526Y46359D01*
X64141Y46974D01*
X64575Y47726D01*
X64800Y48566D01*
Y49434D01*
X64575Y50274D01*
X64141Y51026D01*
X63526Y51641D01*
X62774Y52075D01*
X61935Y52300D01*
D02*
G37*
G36*
X70500Y13990D02*
Y11000D01*
X73489D01*
X73261Y11851D01*
X72801Y12649D01*
X72149Y13301D01*
X71351Y13761D01*
X70500Y13990D01*
D02*
G37*
G36*
X69500D02*
X68649Y13761D01*
X67851Y13301D01*
X67199Y12649D01*
X66738Y11851D01*
X66510Y11000D01*
X69500D01*
Y13990D01*
D02*
G37*
G36*
X73489Y10000D02*
X70500D01*
Y7011D01*
X71351Y7238D01*
X72149Y7699D01*
X72801Y8351D01*
X73261Y9149D01*
X73489Y10000D01*
D02*
G37*
G36*
X69500D02*
X66510D01*
X66738Y9149D01*
X67199Y8351D01*
X67851Y7699D01*
X68649Y7238D01*
X69500Y7011D01*
Y10000D01*
D02*
G37*
%LPD*%
D47*
X67000Y83000D02*
D03*
X70000Y10500D02*
D03*
X34000Y86500D02*
D03*
M02*
