G04*
G04 #@! TF.GenerationSoftware,Altium Limited,Altium Designer,22.3.1 (43)*
G04*
G04 Layer_Color=32768*
%FSLAX25Y25*%
%MOIN*%
G70*
G04*
G04 #@! TF.SameCoordinates,35B4740E-92D2-49D1-AA18-A508E5057BF1*
G04*
G04*
G04 #@! TF.FilePolarity,Positive*
G04*
G01*
G75*
%ADD48C,0.00394*%
%ADD49C,0.00197*%
D48*
X50201Y56894D02*
Y60831D01*
X48232Y58862D02*
X52169D01*
X22000Y98532D02*
Y102469D01*
X20031Y100500D02*
X23968D01*
D49*
X42327Y50988D02*
X58075D01*
X42327Y66736D02*
X58075D01*
X42327Y50988D02*
Y66736D01*
X58075Y50988D02*
Y66736D01*
X66618Y91110D02*
Y104890D01*
Y91110D02*
X81382D01*
Y104890D01*
X66618D02*
X81382D01*
X14126Y93413D02*
X29874D01*
X14126Y107587D02*
X29874D01*
Y93413D02*
Y107587D01*
X14126Y93413D02*
Y107587D01*
X48063Y90004D02*
Y102996D01*
X55937D01*
Y90004D02*
Y102996D01*
X48063Y90004D02*
X55937D01*
X82709Y101937D02*
X96291D01*
Y94063D02*
Y101937D01*
X82709Y94063D02*
X96291D01*
X82709D02*
Y101937D01*
X46142Y89906D02*
Y103094D01*
X38858Y89906D02*
X46142D01*
X38858D02*
Y103094D01*
X46142D01*
X31480Y96118D02*
Y105882D01*
X36520D01*
Y96118D02*
Y105882D01*
X31480Y96118D02*
X36520D01*
X62185Y56291D02*
Y68988D01*
X72815D01*
Y56291D02*
Y68988D01*
X62185Y56291D02*
X72815D01*
X12020Y94618D02*
Y104382D01*
X6980Y94618D02*
X12020D01*
X6980D02*
Y104382D01*
X12020D01*
X42610Y39882D02*
X56390D01*
X42610Y25118D02*
Y39882D01*
Y25118D02*
X56390D01*
Y39882D01*
X25610Y45382D02*
X39390D01*
X25610Y30618D02*
Y45382D01*
Y30618D02*
X39390D01*
Y45382D01*
X51382Y67610D02*
Y81390D01*
X36618D02*
X51382D01*
X36618Y67610D02*
Y81390D01*
Y67610D02*
X51382D01*
X43004Y41063D02*
X55996D01*
X43004D02*
Y48937D01*
X55996D01*
Y41063D02*
Y48937D01*
X45563Y11004D02*
Y23996D01*
X53437D01*
Y11004D02*
Y23996D01*
X45563Y11004D02*
X53437D01*
X26004Y47063D02*
X38996D01*
X26004D02*
Y54937D01*
X38996D01*
Y47063D02*
Y54937D01*
X33563Y16504D02*
Y29496D01*
X41437D01*
Y16504D02*
Y29496D01*
X33563Y16504D02*
X41437D01*
X60437Y67709D02*
Y81291D01*
X52563Y67709D02*
X60437D01*
X52563D02*
Y81291D01*
X60437D01*
X21709Y70563D02*
X35291D01*
X21709D02*
Y78437D01*
X35291D01*
Y70563D02*
Y78437D01*
X58063Y91272D02*
Y104854D01*
X65937D01*
Y91272D02*
Y104854D01*
X58063Y91272D02*
X65937D01*
M02*
