G04*
G04 #@! TF.GenerationSoftware,Altium Limited,Altium Designer,22.3.1 (43)*
G04*
G04 Layer_Physical_Order=3*
G04 Layer_Color=16440176*
%FSLAX25Y25*%
%MOIN*%
G70*
G04*
G04 #@! TF.SameCoordinates,7A749ED4-F297-4BF6-9624-BD1DB0530FDD*
G04*
G04*
G04 #@! TF.FilePolarity,Positive*
G04*
G01*
G75*
%ADD47C,0.05000*%
G36*
X87000Y5500D02*
X10500D01*
Y107000D01*
X12000Y108500D01*
X87000D01*
Y5500D01*
D02*
G37*
%LPC*%
G36*
X25934Y90800D02*
X25065D01*
X24226Y90575D01*
X23474Y90141D01*
X22859Y89526D01*
X22425Y88774D01*
X22200Y87934D01*
Y87066D01*
X22425Y86226D01*
X22859Y85474D01*
X23474Y84859D01*
X24226Y84425D01*
X25065Y84200D01*
X25934D01*
X26774Y84425D01*
X27526Y84859D01*
X28141Y85474D01*
X28575Y86226D01*
X28800Y87066D01*
Y87934D01*
X28575Y88774D01*
X28141Y89526D01*
X27526Y90141D01*
X26774Y90575D01*
X25934Y90800D01*
D02*
G37*
G36*
X34434Y89800D02*
X33566D01*
X32726Y89575D01*
X31974Y89141D01*
X31359Y88526D01*
X30925Y87774D01*
X30700Y86935D01*
Y86066D01*
X30925Y85226D01*
X31359Y84474D01*
X31974Y83859D01*
X32726Y83425D01*
X33566Y83200D01*
X34434D01*
X35274Y83425D01*
X36026Y83859D01*
X36641Y84474D01*
X37075Y85226D01*
X37300Y86066D01*
Y86935D01*
X37075Y87774D01*
X36641Y88526D01*
X36026Y89141D01*
X35274Y89575D01*
X34434Y89800D01*
D02*
G37*
G36*
X67435Y86300D02*
X66566D01*
X65726Y86075D01*
X64974Y85641D01*
X64359Y85026D01*
X63925Y84274D01*
X63700Y83434D01*
Y82565D01*
X63925Y81726D01*
X64359Y80974D01*
X64974Y80359D01*
X65726Y79925D01*
X66566Y79700D01*
X67435D01*
X68274Y79925D01*
X69026Y80359D01*
X69641Y80974D01*
X70075Y81726D01*
X70300Y82565D01*
Y83434D01*
X70075Y84274D01*
X69641Y85026D01*
X69026Y85641D01*
X68274Y86075D01*
X67435Y86300D01*
D02*
G37*
G36*
X65000Y76490D02*
Y73500D01*
X67989D01*
X67761Y74351D01*
X67301Y75149D01*
X66649Y75801D01*
X65851Y76262D01*
X65000Y76490D01*
D02*
G37*
G36*
X64000D02*
X63149Y76262D01*
X62351Y75801D01*
X61699Y75149D01*
X61238Y74351D01*
X61010Y73500D01*
X64000D01*
Y76490D01*
D02*
G37*
G36*
X67989Y72500D02*
X65000D01*
Y69511D01*
X65851Y69739D01*
X66649Y70199D01*
X67301Y70851D01*
X67761Y71649D01*
X67989Y72500D01*
D02*
G37*
G36*
X64000D02*
X61010D01*
X61238Y71649D01*
X61699Y70851D01*
X62351Y70199D01*
X63149Y69739D01*
X64000Y69511D01*
Y72500D01*
D02*
G37*
G36*
X74250Y52740D02*
Y49750D01*
X77240D01*
X77012Y50601D01*
X76551Y51399D01*
X75899Y52051D01*
X75101Y52512D01*
X74250Y52740D01*
D02*
G37*
G36*
X73250D02*
X72399Y52512D01*
X71601Y52051D01*
X70949Y51399D01*
X70489Y50601D01*
X70261Y49750D01*
X73250D01*
Y52740D01*
D02*
G37*
G36*
X77240Y48750D02*
X74250D01*
Y45761D01*
X75101Y45989D01*
X75899Y46449D01*
X76551Y47101D01*
X77012Y47899D01*
X77240Y48750D01*
D02*
G37*
G36*
X73250D02*
X70261D01*
X70489Y47899D01*
X70949Y47101D01*
X71601Y46449D01*
X72399Y45989D01*
X73250Y45761D01*
Y48750D01*
D02*
G37*
G36*
X61935Y52300D02*
X61066D01*
X60226Y52075D01*
X59474Y51641D01*
X58859Y51026D01*
X58425Y50274D01*
X58200Y49434D01*
Y48566D01*
X58425Y47726D01*
X58859Y46974D01*
X59474Y46359D01*
X60226Y45925D01*
X61066Y45700D01*
X61935D01*
X62774Y45925D01*
X63526Y46359D01*
X64141Y46974D01*
X64575Y47726D01*
X64800Y48566D01*
Y49434D01*
X64575Y50274D01*
X64141Y51026D01*
X63526Y51641D01*
X62774Y52075D01*
X61935Y52300D01*
D02*
G37*
G36*
X70434Y13800D02*
X69565D01*
X68726Y13575D01*
X67974Y13141D01*
X67359Y12526D01*
X66925Y11774D01*
X66700Y10934D01*
Y10066D01*
X66925Y9226D01*
X67359Y8474D01*
X67974Y7859D01*
X68726Y7425D01*
X69565Y7200D01*
X70434D01*
X71274Y7425D01*
X72026Y7859D01*
X72641Y8474D01*
X73075Y9226D01*
X73300Y10066D01*
Y10934D01*
X73075Y11774D01*
X72641Y12526D01*
X72026Y13141D01*
X71274Y13575D01*
X70434Y13800D01*
D02*
G37*
%LPD*%
D47*
X64500Y73000D02*
D03*
X73750Y49250D02*
D03*
M02*
