G04*
G04 #@! TF.GenerationSoftware,Altium Limited,Altium Designer,22.3.1 (43)*
G04*
G04 Layer_Color=8421504*
%FSLAX25Y25*%
%MOIN*%
G70*
G04*
G04 #@! TF.SameCoordinates,35B4740E-92D2-49D1-AA18-A508E5057BF1*
G04*
G04*
G04 #@! TF.FilePolarity,Positive*
G04*
G01*
G75*
%ADD14O,0.00787X0.02559*%
%ADD15O,0.02559X0.00787*%
%ADD16R,0.06063X0.06693*%
%ADD17R,0.04134X0.02362*%
%ADD18R,0.04331X0.02559*%
%ADD19R,0.05709X0.03543*%
%ADD20R,0.03740X0.05709*%
%ADD21R,0.03740X0.03347*%
%ADD22R,0.03858X0.03071*%
%ADD23R,0.01181X0.00984*%
%ADD24R,0.02362X0.04134*%
%ADD25R,0.03543X0.05709*%
%ADD26R,0.05709X0.03740*%
D14*
X46264Y52661D02*
D03*
X47839D02*
D03*
X49413D02*
D03*
X50988D02*
D03*
X52563D02*
D03*
X54138D02*
D03*
Y65063D02*
D03*
X52563D02*
D03*
X50988D02*
D03*
X49413D02*
D03*
X47839D02*
D03*
X46264D02*
D03*
D15*
X56402Y54925D02*
D03*
Y56500D02*
D03*
Y58075D02*
D03*
Y59650D02*
D03*
Y61224D02*
D03*
Y62799D02*
D03*
X44000D02*
D03*
Y61224D02*
D03*
Y59650D02*
D03*
Y58075D02*
D03*
Y56500D02*
D03*
Y54925D02*
D03*
D16*
X50201Y58862D02*
D03*
D17*
X78331Y98000D02*
D03*
X69669Y94260D02*
D03*
Y101740D02*
D03*
X39669Y74500D02*
D03*
X48331Y78240D02*
D03*
Y70760D02*
D03*
D18*
X26724Y104240D02*
D03*
Y96760D02*
D03*
X17276D02*
D03*
Y100500D02*
D03*
Y104240D02*
D03*
D19*
X52000Y92760D02*
D03*
Y100240D02*
D03*
X49500Y13760D02*
D03*
Y21240D02*
D03*
X37500Y19260D02*
D03*
Y26740D02*
D03*
D20*
X85563Y98000D02*
D03*
X93437D02*
D03*
X32437Y74500D02*
D03*
X24563D02*
D03*
D21*
X42500Y99650D02*
D03*
Y93350D02*
D03*
D22*
X34000Y98244D02*
D03*
Y103756D02*
D03*
X9500Y102256D02*
D03*
Y96744D02*
D03*
D23*
X67500Y62000D02*
D03*
Y64165D02*
D03*
D24*
X49500Y28169D02*
D03*
X45760Y36831D02*
D03*
X53240D02*
D03*
X32500Y33669D02*
D03*
X28760Y42331D02*
D03*
X36240D02*
D03*
D25*
X53240Y45000D02*
D03*
X45760D02*
D03*
X36240Y51000D02*
D03*
X28760D02*
D03*
D26*
X56500Y78437D02*
D03*
Y70563D02*
D03*
X62000Y94126D02*
D03*
Y102000D02*
D03*
M02*
