G04*
G04 #@! TF.GenerationSoftware,Altium Limited,Altium Designer,22.3.1 (43)*
G04*
G04 Layer_Color=32896*
%FSLAX25Y25*%
%MOIN*%
G70*
G04*
G04 #@! TF.SameCoordinates,7A749ED4-F297-4BF6-9624-BD1DB0530FDD*
G04*
G04*
G04 #@! TF.FilePolarity,Positive*
G04*
G01*
G75*
%ADD11C,0.00600*%
G36*
X18910Y12389D02*
X17994D01*
Y15280D01*
X16833Y12389D01*
X16110D01*
Y17621D01*
X16996D01*
Y14903D01*
X18167Y17621D01*
X18910D01*
Y12389D01*
D02*
G37*
G36*
X21435Y17662D02*
X21567Y17642D01*
X21689Y17611D01*
X21791Y17570D01*
X21893Y17530D01*
X21974Y17489D01*
X22056Y17448D01*
X22178Y17367D01*
X22259Y17285D01*
X22310Y17234D01*
X22330Y17224D01*
Y17214D01*
X22442Y17021D01*
X22534Y16807D01*
X22595Y16583D01*
X22636Y16369D01*
X22656Y16176D01*
X22666Y16094D01*
Y16013D01*
X22677Y15952D01*
Y15911D01*
Y15880D01*
Y15870D01*
Y14119D01*
X22666Y13814D01*
X22626Y13539D01*
X22575Y13305D01*
X22544Y13213D01*
X22514Y13122D01*
X22483Y13040D01*
X22453Y12969D01*
X22422Y12908D01*
X22402Y12867D01*
X22381Y12826D01*
X22361Y12796D01*
X22351Y12786D01*
Y12776D01*
X22279Y12694D01*
X22208Y12623D01*
X22045Y12511D01*
X21862Y12430D01*
X21679Y12379D01*
X21516Y12338D01*
X21445Y12328D01*
X21384D01*
X21333Y12318D01*
X21261D01*
X21149Y12328D01*
X21048Y12338D01*
X20865Y12399D01*
X20722Y12480D01*
X20600Y12582D01*
X20508Y12684D01*
X20457Y12765D01*
X20417Y12826D01*
X20406Y12837D01*
Y12847D01*
X20335Y12389D01*
X19633D01*
Y15076D01*
X21109D01*
Y14425D01*
X20600D01*
Y13875D01*
Y13743D01*
X20620Y13621D01*
X20630Y13519D01*
X20651Y13437D01*
X20671Y13376D01*
X20691Y13325D01*
X20702Y13295D01*
X20712Y13285D01*
X20763Y13213D01*
X20824Y13162D01*
X20885Y13122D01*
X20946Y13101D01*
X21007Y13081D01*
X21058Y13071D01*
X21099D01*
X21200Y13081D01*
X21282Y13101D01*
X21353Y13132D01*
X21404Y13173D01*
X21445Y13203D01*
X21475Y13234D01*
X21486Y13254D01*
X21496Y13264D01*
X21526Y13346D01*
X21557Y13437D01*
X21587Y13631D01*
Y13712D01*
X21598Y13773D01*
Y13814D01*
Y13834D01*
Y16166D01*
Y16298D01*
X21587Y16410D01*
X21567Y16501D01*
X21557Y16583D01*
X21536Y16644D01*
X21526Y16695D01*
X21516Y16715D01*
Y16725D01*
X21475Y16786D01*
X21414Y16838D01*
X21353Y16868D01*
X21292Y16898D01*
X21231Y16909D01*
X21180Y16919D01*
X21139D01*
X21038Y16909D01*
X20966Y16888D01*
X20895Y16868D01*
X20844Y16838D01*
X20814Y16797D01*
X20793Y16776D01*
X20773Y16756D01*
Y16746D01*
X20742Y16675D01*
X20722Y16593D01*
X20702Y16420D01*
X20691Y16339D01*
Y16277D01*
Y16237D01*
Y16217D01*
Y15850D01*
X19653D01*
Y16155D01*
X19663Y16420D01*
X19704Y16644D01*
X19765Y16838D01*
X19826Y17000D01*
X19887Y17122D01*
X19948Y17214D01*
X19989Y17265D01*
X19999Y17285D01*
X20071Y17357D01*
X20152Y17418D01*
X20325Y17519D01*
X20518Y17591D01*
X20702Y17631D01*
X20875Y17662D01*
X20956Y17672D01*
X21017D01*
X21068Y17682D01*
X21302D01*
X21435Y17662D01*
D02*
G37*
G36*
X15327Y12389D02*
X14013D01*
X13789Y12399D01*
X13586Y12419D01*
X13413Y12440D01*
X13270Y12480D01*
X13158Y12511D01*
X13077Y12531D01*
X13026Y12552D01*
X13005Y12562D01*
X12873Y12633D01*
X12771Y12715D01*
X12680Y12806D01*
X12608Y12898D01*
X12558Y12979D01*
X12517Y13040D01*
X12496Y13081D01*
X12486Y13101D01*
X12436Y13244D01*
X12395Y13407D01*
X12364Y13570D01*
X12344Y13722D01*
X12334Y13855D01*
X12324Y13967D01*
Y14007D01*
Y14038D01*
Y14058D01*
Y14069D01*
Y15982D01*
X12334Y16186D01*
X12344Y16369D01*
X12374Y16532D01*
X12405Y16664D01*
X12436Y16776D01*
X12456Y16858D01*
X12476Y16898D01*
X12486Y16919D01*
X12558Y17041D01*
X12629Y17153D01*
X12720Y17245D01*
X12812Y17316D01*
X12883Y17377D01*
X12955Y17418D01*
X12995Y17438D01*
X13016Y17448D01*
X13168Y17509D01*
X13331Y17550D01*
X13504Y17581D01*
X13667Y17601D01*
X13820Y17611D01*
X13932Y17621D01*
X15327D01*
Y12389D01*
D02*
G37*
G36*
X21104Y27672D02*
X21317Y27632D01*
X21491Y27570D01*
X21643Y27509D01*
X21755Y27438D01*
X21837Y27377D01*
X21888Y27336D01*
X21908Y27316D01*
X22030Y27163D01*
X22122Y26990D01*
X22183Y26817D01*
X22223Y26644D01*
X22254Y26491D01*
X22264Y26430D01*
Y26369D01*
X22274Y26318D01*
Y26288D01*
Y26267D01*
Y26257D01*
Y25972D01*
X21277D01*
Y26206D01*
X21267Y26328D01*
X21256Y26430D01*
X21246Y26512D01*
X21226Y26583D01*
X21216Y26644D01*
X21195Y26685D01*
X21185Y26705D01*
Y26715D01*
X21145Y26776D01*
X21104Y26817D01*
X21053Y26858D01*
X20992Y26878D01*
X20951Y26888D01*
X20910Y26899D01*
X20870D01*
X20788Y26888D01*
X20717Y26878D01*
X20666Y26848D01*
X20615Y26817D01*
X20584Y26787D01*
X20564Y26766D01*
X20544Y26746D01*
Y26736D01*
X20513Y26664D01*
X20493Y26593D01*
X20462Y26430D01*
X20452Y26349D01*
Y26288D01*
Y26247D01*
Y26237D01*
X20462Y26094D01*
X20473Y25972D01*
X20493Y25860D01*
X20513Y25779D01*
X20544Y25718D01*
X20564Y25667D01*
X20574Y25646D01*
X20584Y25636D01*
X20636Y25575D01*
X20707Y25534D01*
X20778Y25504D01*
X20859Y25484D01*
X20931Y25473D01*
X20992Y25463D01*
X21205D01*
Y24730D01*
X21053D01*
X21033Y24720D01*
X21022D01*
X20910Y24710D01*
X20819Y24690D01*
X20737Y24659D01*
X20676Y24618D01*
X20625Y24577D01*
X20595Y24547D01*
X20584Y24527D01*
X20574Y24516D01*
X20534Y24435D01*
X20503Y24333D01*
X20462Y24130D01*
Y24028D01*
X20452Y23956D01*
Y23906D01*
Y23885D01*
Y23743D01*
X20462Y23631D01*
X20473Y23529D01*
X20493Y23448D01*
X20503Y23386D01*
X20524Y23336D01*
X20534Y23315D01*
Y23305D01*
X20564Y23244D01*
X20615Y23203D01*
X20666Y23173D01*
X20717Y23152D01*
X20768Y23142D01*
X20809Y23132D01*
X20849D01*
X20931Y23142D01*
X21002Y23163D01*
X21053Y23183D01*
X21104Y23224D01*
X21134Y23254D01*
X21155Y23274D01*
X21175Y23295D01*
Y23305D01*
X21205Y23376D01*
X21226Y23468D01*
X21256Y23661D01*
X21267Y23743D01*
X21277Y23824D01*
Y23865D01*
Y23885D01*
Y24058D01*
X22274D01*
Y23875D01*
X22264Y23610D01*
X22223Y23376D01*
X22173Y23173D01*
X22111Y23010D01*
X22050Y22888D01*
X22000Y22786D01*
X21959Y22735D01*
X21949Y22715D01*
X21806Y22582D01*
X21633Y22480D01*
X21460Y22409D01*
X21277Y22358D01*
X21114Y22328D01*
X21043Y22318D01*
X20982D01*
X20931Y22307D01*
X20859D01*
X20605Y22328D01*
X20381Y22368D01*
X20198Y22440D01*
X20045Y22521D01*
X19933Y22592D01*
X19852Y22664D01*
X19811Y22704D01*
X19791Y22725D01*
X19679Y22898D01*
X19597Y23091D01*
X19536Y23285D01*
X19495Y23478D01*
X19475Y23641D01*
X19465Y23722D01*
X19455Y23783D01*
Y23834D01*
Y23875D01*
Y23895D01*
Y23906D01*
X19465Y24089D01*
X19485Y24242D01*
X19516Y24394D01*
X19556Y24516D01*
X19607Y24639D01*
X19668Y24740D01*
X19729Y24822D01*
X19791Y24903D01*
X19852Y24964D01*
X19913Y25015D01*
X19974Y25056D01*
X20025Y25097D01*
X20065Y25117D01*
X20096Y25137D01*
X20116Y25148D01*
X20126D01*
X20025Y25188D01*
X19923Y25239D01*
X19841Y25300D01*
X19780Y25361D01*
X19719Y25422D01*
X19679Y25473D01*
X19658Y25514D01*
X19648Y25524D01*
X19587Y25646D01*
X19536Y25779D01*
X19505Y25901D01*
X19475Y26023D01*
X19465Y26125D01*
X19455Y26217D01*
Y26267D01*
Y26288D01*
X19475Y26532D01*
X19516Y26736D01*
X19577Y26919D01*
X19638Y27061D01*
X19709Y27173D01*
X19770Y27265D01*
X19811Y27306D01*
X19831Y27326D01*
X19984Y27448D01*
X20147Y27540D01*
X20320Y27601D01*
X20483Y27652D01*
X20636Y27672D01*
X20758Y27682D01*
X20809Y27693D01*
X20870D01*
X21104Y27672D01*
D02*
G37*
G36*
X14395D02*
X14609Y27632D01*
X14782Y27570D01*
X14935Y27509D01*
X15047Y27438D01*
X15128Y27377D01*
X15179Y27336D01*
X15199Y27316D01*
X15322Y27163D01*
X15413Y26990D01*
X15474Y26817D01*
X15515Y26644D01*
X15545Y26491D01*
X15556Y26430D01*
Y26369D01*
X15566Y26318D01*
Y26288D01*
Y26267D01*
Y26257D01*
Y25972D01*
X14568D01*
Y26206D01*
X14558Y26328D01*
X14548Y26430D01*
X14538Y26512D01*
X14517Y26583D01*
X14507Y26644D01*
X14487Y26685D01*
X14477Y26705D01*
Y26715D01*
X14436Y26776D01*
X14395Y26817D01*
X14344Y26858D01*
X14283Y26878D01*
X14242Y26888D01*
X14202Y26899D01*
X14161D01*
X14080Y26888D01*
X14008Y26878D01*
X13957Y26848D01*
X13906Y26817D01*
X13876Y26787D01*
X13856Y26766D01*
X13835Y26746D01*
Y26736D01*
X13805Y26664D01*
X13784Y26593D01*
X13754Y26430D01*
X13744Y26349D01*
Y26288D01*
Y26247D01*
Y26237D01*
X13754Y26094D01*
X13764Y25972D01*
X13784Y25860D01*
X13805Y25779D01*
X13835Y25718D01*
X13856Y25667D01*
X13866Y25646D01*
X13876Y25636D01*
X13927Y25575D01*
X13998Y25534D01*
X14069Y25504D01*
X14151Y25484D01*
X14222Y25473D01*
X14283Y25463D01*
X14497D01*
Y24730D01*
X14344D01*
X14324Y24720D01*
X14314D01*
X14202Y24710D01*
X14110Y24690D01*
X14029Y24659D01*
X13968Y24618D01*
X13917Y24577D01*
X13886Y24547D01*
X13876Y24527D01*
X13866Y24516D01*
X13825Y24435D01*
X13794Y24333D01*
X13754Y24130D01*
Y24028D01*
X13744Y23956D01*
Y23906D01*
Y23885D01*
Y23743D01*
X13754Y23631D01*
X13764Y23529D01*
X13784Y23448D01*
X13794Y23386D01*
X13815Y23336D01*
X13825Y23315D01*
Y23305D01*
X13856Y23244D01*
X13906Y23203D01*
X13957Y23173D01*
X14008Y23152D01*
X14059Y23142D01*
X14100Y23132D01*
X14141D01*
X14222Y23142D01*
X14293Y23163D01*
X14344Y23183D01*
X14395Y23224D01*
X14426Y23254D01*
X14446Y23274D01*
X14466Y23295D01*
Y23305D01*
X14497Y23376D01*
X14517Y23468D01*
X14548Y23661D01*
X14558Y23743D01*
X14568Y23824D01*
Y23865D01*
Y23885D01*
Y24058D01*
X15566D01*
Y23875D01*
X15556Y23610D01*
X15515Y23376D01*
X15464Y23173D01*
X15403Y23010D01*
X15342Y22888D01*
X15291Y22786D01*
X15250Y22735D01*
X15240Y22715D01*
X15098Y22582D01*
X14924Y22480D01*
X14751Y22409D01*
X14568Y22358D01*
X14405Y22328D01*
X14334Y22318D01*
X14273D01*
X14222Y22307D01*
X14151D01*
X13896Y22328D01*
X13672Y22368D01*
X13489Y22440D01*
X13336Y22521D01*
X13224Y22592D01*
X13143Y22664D01*
X13102Y22704D01*
X13082Y22725D01*
X12970Y22898D01*
X12889Y23091D01*
X12827Y23285D01*
X12787Y23478D01*
X12766Y23641D01*
X12756Y23722D01*
X12746Y23783D01*
Y23834D01*
Y23875D01*
Y23895D01*
Y23906D01*
X12756Y24089D01*
X12776Y24242D01*
X12807Y24394D01*
X12848Y24516D01*
X12899Y24639D01*
X12960Y24740D01*
X13021Y24822D01*
X13082Y24903D01*
X13143Y24964D01*
X13204Y25015D01*
X13265Y25056D01*
X13316Y25097D01*
X13357Y25117D01*
X13387Y25137D01*
X13408Y25148D01*
X13418D01*
X13316Y25188D01*
X13214Y25239D01*
X13133Y25300D01*
X13072Y25361D01*
X13011Y25422D01*
X12970Y25473D01*
X12949Y25514D01*
X12939Y25524D01*
X12878Y25646D01*
X12827Y25779D01*
X12797Y25901D01*
X12766Y26023D01*
X12756Y26125D01*
X12746Y26217D01*
Y26267D01*
Y26288D01*
X12766Y26532D01*
X12807Y26736D01*
X12868Y26919D01*
X12929Y27061D01*
X13001Y27173D01*
X13061Y27265D01*
X13102Y27306D01*
X13123Y27326D01*
X13275Y27448D01*
X13438Y27540D01*
X13611Y27601D01*
X13774Y27652D01*
X13927Y27672D01*
X14049Y27682D01*
X14100Y27693D01*
X14161D01*
X14395Y27672D01*
D02*
G37*
G36*
X18101Y22389D02*
X17001D01*
X16004Y27621D01*
X16971D01*
X17551Y23997D01*
X18172Y27621D01*
X19098D01*
X18101Y22389D01*
D02*
G37*
G36*
X17398Y57657D02*
X17530Y57637D01*
X17653Y57606D01*
X17754Y57576D01*
X17856Y57535D01*
X17938Y57494D01*
X18019Y57453D01*
X18141Y57372D01*
X18223Y57301D01*
X18274Y57250D01*
X18294Y57240D01*
Y57229D01*
X18406Y57046D01*
X18498Y56842D01*
X18559Y56629D01*
X18599Y56415D01*
X18620Y56222D01*
X18630Y56140D01*
Y56069D01*
X18640Y56008D01*
Y55967D01*
Y55936D01*
Y55926D01*
Y54053D01*
X18630Y53758D01*
X18589Y53493D01*
X18528Y53269D01*
X18467Y53086D01*
X18406Y52944D01*
X18375Y52893D01*
X18345Y52842D01*
X18325Y52811D01*
X18304Y52781D01*
X18294Y52771D01*
Y52760D01*
X18223Y52679D01*
X18141Y52618D01*
X17958Y52506D01*
X17765Y52435D01*
X17571Y52373D01*
X17398Y52343D01*
X17317Y52333D01*
X17245D01*
X17195Y52323D01*
X16971D01*
X16838Y52343D01*
X16706Y52363D01*
X16594Y52384D01*
X16492Y52414D01*
X16401Y52445D01*
X16248Y52526D01*
X16126Y52597D01*
X16044Y52659D01*
X15993Y52699D01*
X15983Y52720D01*
X15871Y52882D01*
X15790Y53076D01*
X15729Y53269D01*
X15688Y53453D01*
X15668Y53626D01*
X15657Y53697D01*
X15647Y53758D01*
Y53809D01*
Y53850D01*
Y53870D01*
Y53880D01*
Y54308D01*
X16675D01*
Y53799D01*
Y53677D01*
X16686Y53565D01*
X16696Y53473D01*
X16716Y53391D01*
X16726Y53330D01*
X16747Y53290D01*
X16757Y53259D01*
Y53249D01*
X16798Y53188D01*
X16849Y53147D01*
X16899Y53106D01*
X16961Y53086D01*
X17011Y53076D01*
X17062Y53066D01*
X17103D01*
X17195Y53076D01*
X17276Y53096D01*
X17337Y53127D01*
X17388Y53157D01*
X17419Y53188D01*
X17449Y53219D01*
X17459Y53239D01*
X17470Y53249D01*
X17500Y53330D01*
X17520Y53412D01*
X17551Y53595D01*
Y53677D01*
X17561Y53738D01*
Y53778D01*
Y53799D01*
Y56181D01*
Y56303D01*
X17551Y56415D01*
X17530Y56507D01*
X17520Y56588D01*
X17500Y56639D01*
X17490Y56690D01*
X17480Y56710D01*
Y56720D01*
X17439Y56782D01*
X17388Y56832D01*
X17327Y56863D01*
X17256Y56893D01*
X17205Y56904D01*
X17154Y56914D01*
X17103D01*
X16981Y56904D01*
X16889Y56873D01*
X16838Y56832D01*
X16818Y56822D01*
X16757Y56751D01*
X16726Y56669D01*
X16706Y56608D01*
Y56598D01*
Y56588D01*
X16686Y56466D01*
X16675Y56344D01*
Y56293D01*
Y56252D01*
Y56222D01*
Y56211D01*
Y55723D01*
X15647D01*
Y56171D01*
X15657Y56425D01*
X15698Y56649D01*
X15749Y56842D01*
X15810Y56995D01*
X15881Y57117D01*
X15932Y57209D01*
X15973Y57260D01*
X15983Y57280D01*
X16044Y57351D01*
X16126Y57413D01*
X16299Y57514D01*
X16482Y57586D01*
X16665Y57626D01*
X16838Y57657D01*
X16920Y57667D01*
X16981D01*
X17032Y57677D01*
X17266D01*
X17398Y57657D01*
D02*
G37*
G36*
X22305Y52384D02*
X21307D01*
X21104Y53534D01*
X20279D01*
X20086Y52384D01*
X19098D01*
X20106Y57616D01*
X21287D01*
X22305Y52384D01*
D02*
G37*
G36*
X14996D02*
X12695D01*
Y53106D01*
X13937D01*
Y57616D01*
X14996D01*
Y52384D01*
D02*
G37*
G36*
X20763Y72384D02*
X19847D01*
Y75275D01*
X18686Y72384D01*
X17963D01*
Y77616D01*
X18849D01*
Y74898D01*
X20020Y77616D01*
X20763D01*
Y72384D01*
D02*
G37*
G36*
X16009Y77657D02*
X16141Y77637D01*
X16263Y77606D01*
X16365Y77575D01*
X16467Y77535D01*
X16548Y77494D01*
X16630Y77453D01*
X16752Y77372D01*
X16833Y77301D01*
X16884Y77250D01*
X16905Y77240D01*
Y77229D01*
X17017Y77046D01*
X17108Y76842D01*
X17169Y76629D01*
X17210Y76415D01*
X17230Y76222D01*
X17240Y76140D01*
Y76069D01*
X17251Y76008D01*
Y75967D01*
Y75937D01*
Y75926D01*
Y74053D01*
X17240Y73758D01*
X17200Y73493D01*
X17139Y73269D01*
X17077Y73086D01*
X17017Y72944D01*
X16986Y72893D01*
X16955Y72842D01*
X16935Y72811D01*
X16915Y72781D01*
X16905Y72771D01*
Y72760D01*
X16833Y72679D01*
X16752Y72618D01*
X16568Y72506D01*
X16375Y72435D01*
X16182Y72373D01*
X16009Y72343D01*
X15927Y72333D01*
X15856D01*
X15805Y72323D01*
X15581D01*
X15449Y72343D01*
X15316Y72363D01*
X15204Y72384D01*
X15103Y72414D01*
X15011Y72445D01*
X14858Y72526D01*
X14736Y72597D01*
X14655Y72659D01*
X14604Y72699D01*
X14594Y72720D01*
X14482Y72882D01*
X14400Y73076D01*
X14339Y73269D01*
X14298Y73453D01*
X14278Y73626D01*
X14268Y73697D01*
X14258Y73758D01*
Y73809D01*
Y73850D01*
Y73870D01*
Y73880D01*
Y74308D01*
X15286D01*
Y73799D01*
Y73677D01*
X15296Y73565D01*
X15306Y73473D01*
X15327Y73391D01*
X15337Y73330D01*
X15357Y73290D01*
X15367Y73259D01*
Y73249D01*
X15408Y73188D01*
X15459Y73147D01*
X15510Y73106D01*
X15571Y73086D01*
X15622Y73076D01*
X15673Y73066D01*
X15713D01*
X15805Y73076D01*
X15887Y73096D01*
X15948Y73127D01*
X15999Y73157D01*
X16029Y73188D01*
X16059Y73219D01*
X16070Y73239D01*
X16080Y73249D01*
X16110Y73330D01*
X16131Y73412D01*
X16161Y73595D01*
Y73677D01*
X16172Y73738D01*
Y73778D01*
Y73799D01*
Y76181D01*
Y76303D01*
X16161Y76415D01*
X16141Y76507D01*
X16131Y76588D01*
X16110Y76639D01*
X16100Y76690D01*
X16090Y76710D01*
Y76720D01*
X16049Y76781D01*
X15999Y76832D01*
X15937Y76863D01*
X15866Y76893D01*
X15815Y76904D01*
X15764Y76914D01*
X15713D01*
X15591Y76904D01*
X15500Y76873D01*
X15449Y76832D01*
X15428Y76822D01*
X15367Y76751D01*
X15337Y76670D01*
X15316Y76608D01*
Y76598D01*
Y76588D01*
X15296Y76466D01*
X15286Y76344D01*
Y76293D01*
Y76252D01*
Y76222D01*
Y76211D01*
Y75723D01*
X14258D01*
Y76171D01*
X14268Y76425D01*
X14309Y76649D01*
X14359Y76842D01*
X14421Y76995D01*
X14492Y77117D01*
X14543Y77209D01*
X14583Y77260D01*
X14594Y77280D01*
X14655Y77351D01*
X14736Y77413D01*
X14909Y77514D01*
X15092Y77586D01*
X15276Y77626D01*
X15449Y77657D01*
X15530Y77667D01*
X15591D01*
X15642Y77677D01*
X15876D01*
X16009Y77657D01*
D02*
G37*
G36*
X22697Y42384D02*
X21699D01*
X21496Y43534D01*
X20671D01*
X20478Y42384D01*
X19490D01*
X20498Y47616D01*
X21679D01*
X22697Y42384D01*
D02*
G37*
G36*
X18961D02*
X17648D01*
X17424Y42394D01*
X17220Y42414D01*
X17047Y42435D01*
X16905Y42475D01*
X16793Y42506D01*
X16711Y42526D01*
X16660Y42547D01*
X16640Y42557D01*
X16508Y42628D01*
X16406Y42709D01*
X16314Y42801D01*
X16243Y42893D01*
X16192Y42974D01*
X16151Y43035D01*
X16131Y43076D01*
X16121Y43096D01*
X16070Y43239D01*
X16029Y43402D01*
X15998Y43565D01*
X15978Y43717D01*
X15968Y43850D01*
X15958Y43962D01*
Y44002D01*
Y44033D01*
Y44053D01*
Y44063D01*
Y45977D01*
X15968Y46181D01*
X15978Y46364D01*
X16009Y46527D01*
X16039Y46659D01*
X16070Y46771D01*
X16090Y46853D01*
X16110Y46893D01*
X16121Y46914D01*
X16192Y47036D01*
X16263Y47148D01*
X16355Y47240D01*
X16446Y47311D01*
X16518Y47372D01*
X16589Y47413D01*
X16630Y47433D01*
X16650Y47443D01*
X16803Y47504D01*
X16965Y47545D01*
X17139Y47576D01*
X17301Y47596D01*
X17454Y47606D01*
X17566Y47616D01*
X18961D01*
Y42384D01*
D02*
G37*
G36*
X15510D02*
X14512D01*
X14309Y43534D01*
X13484D01*
X13291Y42384D01*
X12303D01*
X13311Y47616D01*
X14492D01*
X15510Y42384D01*
D02*
G37*
G36*
X84668Y32384D02*
X83355D01*
X83131Y32394D01*
X82928Y32414D01*
X82755Y32435D01*
X82612Y32475D01*
X82500Y32506D01*
X82419Y32526D01*
X82368Y32546D01*
X82348Y32557D01*
X82215Y32628D01*
X82113Y32709D01*
X82022Y32801D01*
X81950Y32893D01*
X81900Y32974D01*
X81859Y33035D01*
X81839Y33076D01*
X81828Y33096D01*
X81777Y33239D01*
X81737Y33402D01*
X81706Y33564D01*
X81686Y33717D01*
X81676Y33850D01*
X81665Y33962D01*
Y34002D01*
Y34033D01*
Y34053D01*
Y34063D01*
Y35977D01*
X81676Y36181D01*
X81686Y36364D01*
X81716Y36527D01*
X81747Y36659D01*
X81777Y36771D01*
X81798Y36853D01*
X81818Y36893D01*
X81828Y36914D01*
X81900Y37036D01*
X81971Y37148D01*
X82063Y37240D01*
X82154Y37311D01*
X82225Y37372D01*
X82297Y37413D01*
X82337Y37433D01*
X82358Y37443D01*
X82510Y37504D01*
X82673Y37545D01*
X82846Y37576D01*
X83009Y37596D01*
X83162Y37606D01*
X83274Y37616D01*
X84668D01*
Y32384D01*
D02*
G37*
G36*
X81217D02*
X80220D01*
X80016Y33534D01*
X79192D01*
X78998Y32384D01*
X78011D01*
X79019Y37616D01*
X80199D01*
X81217Y32384D01*
D02*
G37*
G36*
X86857Y37667D02*
X87071Y37626D01*
X87254Y37565D01*
X87407Y37504D01*
X87519Y37443D01*
X87611Y37382D01*
X87661Y37341D01*
X87682Y37331D01*
X87804Y37189D01*
X87896Y37036D01*
X87967Y36863D01*
X88008Y36710D01*
X88038Y36568D01*
X88048Y36446D01*
X88059Y36405D01*
Y36374D01*
Y36354D01*
Y36344D01*
X88048Y36191D01*
X88028Y36048D01*
X88008Y35916D01*
X87977Y35814D01*
X87946Y35723D01*
X87916Y35662D01*
X87906Y35621D01*
X87896Y35611D01*
X87824Y35499D01*
X87743Y35397D01*
X87661Y35295D01*
X87580Y35203D01*
X87499Y35132D01*
X87437Y35071D01*
X87397Y35030D01*
X87387Y35020D01*
X86847Y34552D01*
X86745Y34460D01*
X86654Y34369D01*
X86582Y34287D01*
X86521Y34216D01*
X86481Y34155D01*
X86440Y34114D01*
X86430Y34084D01*
X86419Y34073D01*
X86369Y33992D01*
X86338Y33900D01*
X86297Y33727D01*
X86287Y33656D01*
X86277Y33595D01*
Y33554D01*
Y33544D01*
X86287Y33422D01*
X86318Y33320D01*
X86348Y33259D01*
X86358Y33249D01*
Y33239D01*
X86389Y33198D01*
X86430Y33178D01*
X86521Y33137D01*
X86562D01*
X86593Y33127D01*
X86623D01*
X86715Y33137D01*
X86786Y33167D01*
X86857Y33198D01*
X86908Y33249D01*
X86959Y33290D01*
X86990Y33320D01*
X87000Y33351D01*
X87010Y33361D01*
X87051Y33463D01*
X87081Y33575D01*
X87102Y33697D01*
X87122Y33819D01*
X87132Y33921D01*
X87142Y34012D01*
Y34073D01*
Y34084D01*
Y34094D01*
X88059Y33941D01*
X88048Y33788D01*
X88028Y33646D01*
X87987Y33402D01*
X87926Y33188D01*
X87855Y33015D01*
X87784Y32882D01*
X87722Y32781D01*
X87682Y32730D01*
X87672Y32709D01*
X87519Y32577D01*
X87346Y32485D01*
X87163Y32414D01*
X86990Y32373D01*
X86827Y32343D01*
X86766Y32333D01*
X86704D01*
X86654Y32323D01*
X86582D01*
X86440Y32333D01*
X86308Y32353D01*
X86185Y32373D01*
X86084Y32404D01*
X86002Y32435D01*
X85931Y32465D01*
X85890Y32475D01*
X85880Y32485D01*
X85768Y32557D01*
X85676Y32628D01*
X85585Y32699D01*
X85524Y32770D01*
X85473Y32832D01*
X85432Y32882D01*
X85412Y32923D01*
X85401Y32933D01*
X85340Y33045D01*
X85300Y33167D01*
X85269Y33279D01*
X85249Y33381D01*
X85239Y33473D01*
X85228Y33544D01*
Y33585D01*
Y33605D01*
X85239Y33778D01*
X85259Y33941D01*
X85300Y34084D01*
X85330Y34216D01*
X85371Y34308D01*
X85412Y34389D01*
X85432Y34430D01*
X85442Y34450D01*
X85524Y34582D01*
X85625Y34715D01*
X85727Y34837D01*
X85819Y34939D01*
X85900Y35030D01*
X85972Y35102D01*
X86012Y35142D01*
X86033Y35163D01*
X86562Y35621D01*
X86643Y35702D01*
X86725Y35774D01*
X86786Y35835D01*
X86827Y35896D01*
X86867Y35947D01*
X86898Y35977D01*
X86908Y35998D01*
X86918Y36008D01*
X86959Y36079D01*
X86979Y36160D01*
X87020Y36303D01*
Y36364D01*
X87030Y36415D01*
Y36446D01*
Y36456D01*
X87020Y36578D01*
X86979Y36680D01*
X86949Y36741D01*
X86939Y36751D01*
Y36761D01*
X86898Y36802D01*
X86847Y36843D01*
X86755Y36873D01*
X86715Y36883D01*
X86674Y36893D01*
X86643D01*
X86562Y36883D01*
X86501Y36863D01*
X86450Y36832D01*
X86409Y36792D01*
X86379Y36751D01*
X86358Y36720D01*
X86348Y36700D01*
Y36690D01*
X86318Y36608D01*
X86297Y36517D01*
X86267Y36313D01*
Y36232D01*
X86257Y36160D01*
Y36110D01*
Y36089D01*
X85330Y36222D01*
X85351Y36456D01*
X85391Y36659D01*
X85452Y36832D01*
X85503Y36985D01*
X85554Y37107D01*
X85605Y37199D01*
X85636Y37250D01*
X85646Y37270D01*
X85768Y37402D01*
X85910Y37504D01*
X86073Y37576D01*
X86236Y37626D01*
X86389Y37657D01*
X86511Y37667D01*
X86552Y37677D01*
X86623D01*
X86857Y37667D01*
D02*
G37*
G36*
X86297Y62384D02*
X85381D01*
Y65275D01*
X84221Y62384D01*
X83498D01*
Y67616D01*
X84383D01*
Y64898D01*
X85554Y67616D01*
X86297D01*
Y62384D01*
D02*
G37*
G36*
X81543Y67657D02*
X81676Y67637D01*
X81798Y67606D01*
X81900Y67576D01*
X82001Y67535D01*
X82083Y67494D01*
X82164Y67453D01*
X82286Y67372D01*
X82368Y67301D01*
X82419Y67250D01*
X82439Y67239D01*
Y67229D01*
X82551Y67046D01*
X82643Y66843D01*
X82704Y66629D01*
X82744Y66415D01*
X82765Y66221D01*
X82775Y66140D01*
Y66069D01*
X82785Y66008D01*
Y65967D01*
Y65936D01*
Y65926D01*
Y64053D01*
X82775Y63758D01*
X82734Y63493D01*
X82673Y63269D01*
X82612Y63086D01*
X82551Y62944D01*
X82521Y62893D01*
X82490Y62842D01*
X82470Y62811D01*
X82449Y62781D01*
X82439Y62770D01*
Y62760D01*
X82368Y62679D01*
X82286Y62618D01*
X82103Y62506D01*
X81910Y62435D01*
X81716Y62374D01*
X81543Y62343D01*
X81462Y62333D01*
X81391D01*
X81340Y62323D01*
X81116D01*
X80983Y62343D01*
X80851Y62363D01*
X80739Y62384D01*
X80637Y62414D01*
X80546Y62445D01*
X80393Y62526D01*
X80271Y62597D01*
X80189Y62659D01*
X80138Y62699D01*
X80128Y62720D01*
X80016Y62883D01*
X79935Y63076D01*
X79874Y63269D01*
X79833Y63453D01*
X79813Y63626D01*
X79803Y63697D01*
X79792Y63758D01*
Y63809D01*
Y63850D01*
Y63870D01*
Y63880D01*
Y64308D01*
X80821D01*
Y63799D01*
Y63677D01*
X80831Y63564D01*
X80841Y63473D01*
X80861Y63392D01*
X80871Y63330D01*
X80892Y63290D01*
X80902Y63259D01*
Y63249D01*
X80943Y63188D01*
X80994Y63147D01*
X81044Y63106D01*
X81106Y63086D01*
X81156Y63076D01*
X81207Y63066D01*
X81248D01*
X81340Y63076D01*
X81421Y63096D01*
X81482Y63127D01*
X81533Y63157D01*
X81564Y63188D01*
X81594Y63218D01*
X81604Y63239D01*
X81615Y63249D01*
X81645Y63330D01*
X81665Y63412D01*
X81696Y63595D01*
Y63677D01*
X81706Y63738D01*
Y63778D01*
Y63799D01*
Y66181D01*
Y66303D01*
X81696Y66415D01*
X81676Y66507D01*
X81665Y66588D01*
X81645Y66639D01*
X81635Y66690D01*
X81625Y66710D01*
Y66720D01*
X81584Y66781D01*
X81533Y66832D01*
X81472Y66863D01*
X81401Y66893D01*
X81350Y66904D01*
X81299Y66914D01*
X81248D01*
X81126Y66904D01*
X81034Y66873D01*
X80983Y66832D01*
X80963Y66822D01*
X80902Y66751D01*
X80871Y66669D01*
X80851Y66608D01*
Y66598D01*
Y66588D01*
X80831Y66466D01*
X80821Y66344D01*
Y66293D01*
Y66252D01*
Y66221D01*
Y66211D01*
Y65723D01*
X79792D01*
Y66171D01*
X79803Y66425D01*
X79843Y66649D01*
X79894Y66843D01*
X79955Y66995D01*
X80026Y67117D01*
X80077Y67209D01*
X80118Y67260D01*
X80128Y67280D01*
X80189Y67352D01*
X80271Y67413D01*
X80444Y67514D01*
X80627Y67586D01*
X80810Y67626D01*
X80983Y67657D01*
X81065Y67667D01*
X81126D01*
X81177Y67677D01*
X81411D01*
X81543Y67657D01*
D02*
G37*
G36*
X84445Y12389D02*
X83528D01*
Y15280D01*
X82368Y12389D01*
X81645D01*
Y17621D01*
X82531D01*
Y14903D01*
X83701Y17621D01*
X84445D01*
Y12389D01*
D02*
G37*
G36*
X86969Y17662D02*
X87102Y17642D01*
X87224Y17611D01*
X87326Y17570D01*
X87427Y17530D01*
X87509Y17489D01*
X87590Y17448D01*
X87712Y17367D01*
X87794Y17285D01*
X87845Y17234D01*
X87865Y17224D01*
Y17214D01*
X87977Y17021D01*
X88069Y16807D01*
X88130Y16583D01*
X88170Y16369D01*
X88191Y16176D01*
X88201Y16094D01*
Y16013D01*
X88211Y15952D01*
Y15911D01*
Y15880D01*
Y15870D01*
Y14119D01*
X88201Y13814D01*
X88160Y13539D01*
X88109Y13305D01*
X88079Y13213D01*
X88048Y13122D01*
X88018Y13040D01*
X87987Y12969D01*
X87957Y12908D01*
X87936Y12867D01*
X87916Y12826D01*
X87896Y12796D01*
X87885Y12786D01*
Y12776D01*
X87814Y12694D01*
X87743Y12623D01*
X87580Y12511D01*
X87397Y12430D01*
X87213Y12379D01*
X87051Y12338D01*
X86979Y12328D01*
X86918D01*
X86867Y12318D01*
X86796D01*
X86684Y12328D01*
X86582Y12338D01*
X86399Y12399D01*
X86257Y12480D01*
X86134Y12582D01*
X86043Y12684D01*
X85992Y12765D01*
X85951Y12826D01*
X85941Y12837D01*
Y12847D01*
X85870Y12389D01*
X85167D01*
Y15076D01*
X86643D01*
Y14425D01*
X86134D01*
Y13875D01*
Y13743D01*
X86155Y13621D01*
X86165Y13519D01*
X86185Y13437D01*
X86206Y13376D01*
X86226Y13325D01*
X86236Y13295D01*
X86246Y13285D01*
X86297Y13213D01*
X86358Y13162D01*
X86419Y13122D01*
X86481Y13101D01*
X86542Y13081D01*
X86593Y13071D01*
X86633D01*
X86735Y13081D01*
X86817Y13101D01*
X86888Y13132D01*
X86939Y13173D01*
X86979Y13203D01*
X87010Y13234D01*
X87020Y13254D01*
X87030Y13264D01*
X87061Y13346D01*
X87091Y13437D01*
X87122Y13631D01*
Y13712D01*
X87132Y13773D01*
Y13814D01*
Y13834D01*
Y16165D01*
Y16298D01*
X87122Y16410D01*
X87102Y16501D01*
X87091Y16583D01*
X87071Y16644D01*
X87061Y16695D01*
X87051Y16715D01*
Y16725D01*
X87010Y16786D01*
X86949Y16837D01*
X86888Y16868D01*
X86827Y16898D01*
X86766Y16909D01*
X86715Y16919D01*
X86674D01*
X86572Y16909D01*
X86501Y16888D01*
X86430Y16868D01*
X86379Y16837D01*
X86348Y16797D01*
X86328Y16776D01*
X86308Y16756D01*
Y16746D01*
X86277Y16675D01*
X86257Y16593D01*
X86236Y16420D01*
X86226Y16339D01*
Y16277D01*
Y16237D01*
Y16216D01*
Y15850D01*
X85188D01*
Y16155D01*
X85198Y16420D01*
X85239Y16644D01*
X85300Y16837D01*
X85361Y17000D01*
X85422Y17122D01*
X85483Y17214D01*
X85524Y17265D01*
X85534Y17285D01*
X85605Y17357D01*
X85686Y17418D01*
X85860Y17519D01*
X86053Y17591D01*
X86236Y17631D01*
X86409Y17662D01*
X86491Y17672D01*
X86552D01*
X86603Y17682D01*
X86837D01*
X86969Y17662D01*
D02*
G37*
G36*
X80861Y12389D02*
X79548D01*
X79324Y12399D01*
X79120Y12419D01*
X78947Y12440D01*
X78805Y12480D01*
X78693Y12511D01*
X78611Y12531D01*
X78561Y12552D01*
X78540Y12562D01*
X78408Y12633D01*
X78306Y12715D01*
X78214Y12806D01*
X78143Y12898D01*
X78092Y12979D01*
X78052Y13040D01*
X78031Y13081D01*
X78021Y13101D01*
X77970Y13244D01*
X77929Y13407D01*
X77899Y13570D01*
X77878Y13722D01*
X77868Y13855D01*
X77858Y13967D01*
Y14007D01*
Y14038D01*
Y14058D01*
Y14069D01*
Y15982D01*
X77868Y16186D01*
X77878Y16369D01*
X77909Y16532D01*
X77940Y16664D01*
X77970Y16776D01*
X77991Y16858D01*
X78011Y16898D01*
X78021Y16919D01*
X78092Y17041D01*
X78163Y17153D01*
X78255Y17245D01*
X78347Y17316D01*
X78418Y17377D01*
X78489Y17418D01*
X78530Y17438D01*
X78550Y17448D01*
X78703Y17509D01*
X78866Y17550D01*
X79039Y17581D01*
X79202Y17601D01*
X79355Y17611D01*
X79467Y17621D01*
X80861D01*
Y12389D01*
D02*
G37*
G36*
X86297Y22384D02*
X85381D01*
Y25275D01*
X84221Y22384D01*
X83498D01*
Y27616D01*
X84383D01*
Y24898D01*
X85554Y27616D01*
X86297D01*
Y22384D01*
D02*
G37*
G36*
X81543Y27657D02*
X81676Y27637D01*
X81798Y27606D01*
X81900Y27575D01*
X82001Y27535D01*
X82083Y27494D01*
X82164Y27453D01*
X82286Y27372D01*
X82368Y27301D01*
X82419Y27250D01*
X82439Y27240D01*
Y27229D01*
X82551Y27046D01*
X82643Y26842D01*
X82704Y26629D01*
X82744Y26415D01*
X82765Y26221D01*
X82775Y26140D01*
Y26069D01*
X82785Y26008D01*
Y25967D01*
Y25936D01*
Y25926D01*
Y24053D01*
X82775Y23758D01*
X82734Y23493D01*
X82673Y23269D01*
X82612Y23086D01*
X82551Y22944D01*
X82521Y22893D01*
X82490Y22842D01*
X82470Y22811D01*
X82449Y22781D01*
X82439Y22771D01*
Y22760D01*
X82368Y22679D01*
X82286Y22618D01*
X82103Y22506D01*
X81910Y22435D01*
X81716Y22374D01*
X81543Y22343D01*
X81462Y22333D01*
X81391D01*
X81340Y22323D01*
X81116D01*
X80983Y22343D01*
X80851Y22363D01*
X80739Y22384D01*
X80637Y22414D01*
X80546Y22445D01*
X80393Y22526D01*
X80271Y22597D01*
X80189Y22659D01*
X80138Y22699D01*
X80128Y22720D01*
X80016Y22883D01*
X79935Y23076D01*
X79874Y23269D01*
X79833Y23453D01*
X79813Y23626D01*
X79803Y23697D01*
X79792Y23758D01*
Y23809D01*
Y23850D01*
Y23870D01*
Y23880D01*
Y24308D01*
X80821D01*
Y23799D01*
Y23676D01*
X80831Y23564D01*
X80841Y23473D01*
X80861Y23392D01*
X80871Y23330D01*
X80892Y23290D01*
X80902Y23259D01*
Y23249D01*
X80943Y23188D01*
X80994Y23147D01*
X81044Y23106D01*
X81106Y23086D01*
X81156Y23076D01*
X81207Y23066D01*
X81248D01*
X81340Y23076D01*
X81421Y23096D01*
X81482Y23127D01*
X81533Y23157D01*
X81564Y23188D01*
X81594Y23218D01*
X81604Y23239D01*
X81615Y23249D01*
X81645Y23330D01*
X81665Y23412D01*
X81696Y23595D01*
Y23676D01*
X81706Y23738D01*
Y23778D01*
Y23799D01*
Y26181D01*
Y26303D01*
X81696Y26415D01*
X81676Y26507D01*
X81665Y26588D01*
X81645Y26639D01*
X81635Y26690D01*
X81625Y26710D01*
Y26720D01*
X81584Y26781D01*
X81533Y26832D01*
X81472Y26863D01*
X81401Y26893D01*
X81350Y26904D01*
X81299Y26914D01*
X81248D01*
X81126Y26904D01*
X81034Y26873D01*
X80983Y26832D01*
X80963Y26822D01*
X80902Y26751D01*
X80871Y26669D01*
X80851Y26608D01*
Y26598D01*
Y26588D01*
X80831Y26466D01*
X80821Y26344D01*
Y26293D01*
Y26252D01*
Y26221D01*
Y26211D01*
Y25723D01*
X79792D01*
Y26171D01*
X79803Y26425D01*
X79843Y26649D01*
X79894Y26842D01*
X79955Y26995D01*
X80026Y27117D01*
X80077Y27209D01*
X80118Y27260D01*
X80128Y27280D01*
X80189Y27351D01*
X80271Y27413D01*
X80444Y27514D01*
X80627Y27586D01*
X80810Y27626D01*
X80983Y27657D01*
X81065Y27667D01*
X81126D01*
X81177Y27677D01*
X81411D01*
X81543Y27657D01*
D02*
G37*
G36*
X86297Y82384D02*
X85381D01*
Y85275D01*
X84221Y82384D01*
X83498D01*
Y87616D01*
X84383D01*
Y84898D01*
X85554Y87616D01*
X86297D01*
Y82384D01*
D02*
G37*
G36*
X81543Y87657D02*
X81676Y87637D01*
X81798Y87606D01*
X81900Y87576D01*
X82001Y87535D01*
X82083Y87494D01*
X82164Y87453D01*
X82286Y87372D01*
X82368Y87301D01*
X82419Y87250D01*
X82439Y87239D01*
Y87229D01*
X82551Y87046D01*
X82643Y86843D01*
X82704Y86629D01*
X82744Y86415D01*
X82765Y86221D01*
X82775Y86140D01*
Y86069D01*
X82785Y86008D01*
Y85967D01*
Y85936D01*
Y85926D01*
Y84053D01*
X82775Y83758D01*
X82734Y83493D01*
X82673Y83269D01*
X82612Y83086D01*
X82551Y82944D01*
X82521Y82893D01*
X82490Y82842D01*
X82470Y82811D01*
X82449Y82781D01*
X82439Y82771D01*
Y82760D01*
X82368Y82679D01*
X82286Y82618D01*
X82103Y82506D01*
X81910Y82435D01*
X81716Y82373D01*
X81543Y82343D01*
X81462Y82333D01*
X81391D01*
X81340Y82323D01*
X81116D01*
X80983Y82343D01*
X80851Y82363D01*
X80739Y82384D01*
X80637Y82414D01*
X80546Y82445D01*
X80393Y82526D01*
X80271Y82597D01*
X80189Y82658D01*
X80138Y82699D01*
X80128Y82720D01*
X80016Y82882D01*
X79935Y83076D01*
X79874Y83269D01*
X79833Y83453D01*
X79813Y83626D01*
X79803Y83697D01*
X79792Y83758D01*
Y83809D01*
Y83850D01*
Y83870D01*
Y83880D01*
Y84308D01*
X80821D01*
Y83799D01*
Y83676D01*
X80831Y83565D01*
X80841Y83473D01*
X80861Y83391D01*
X80871Y83330D01*
X80892Y83290D01*
X80902Y83259D01*
Y83249D01*
X80943Y83188D01*
X80994Y83147D01*
X81044Y83106D01*
X81106Y83086D01*
X81156Y83076D01*
X81207Y83066D01*
X81248D01*
X81340Y83076D01*
X81421Y83096D01*
X81482Y83127D01*
X81533Y83157D01*
X81564Y83188D01*
X81594Y83218D01*
X81604Y83239D01*
X81615Y83249D01*
X81645Y83330D01*
X81665Y83412D01*
X81696Y83595D01*
Y83676D01*
X81706Y83738D01*
Y83778D01*
Y83799D01*
Y86181D01*
Y86303D01*
X81696Y86415D01*
X81676Y86507D01*
X81665Y86588D01*
X81645Y86639D01*
X81635Y86690D01*
X81625Y86710D01*
Y86720D01*
X81584Y86781D01*
X81533Y86832D01*
X81472Y86863D01*
X81401Y86893D01*
X81350Y86904D01*
X81299Y86914D01*
X81248D01*
X81126Y86904D01*
X81034Y86873D01*
X80983Y86832D01*
X80963Y86822D01*
X80902Y86751D01*
X80871Y86669D01*
X80851Y86608D01*
Y86598D01*
Y86588D01*
X80831Y86466D01*
X80821Y86344D01*
Y86293D01*
Y86252D01*
Y86221D01*
Y86211D01*
Y85723D01*
X79792D01*
Y86171D01*
X79803Y86425D01*
X79843Y86649D01*
X79894Y86843D01*
X79955Y86995D01*
X80026Y87117D01*
X80077Y87209D01*
X80118Y87260D01*
X80128Y87280D01*
X80189Y87352D01*
X80271Y87413D01*
X80444Y87514D01*
X80627Y87586D01*
X80810Y87626D01*
X80983Y87657D01*
X81065Y87667D01*
X81126D01*
X81177Y87677D01*
X81411D01*
X81543Y87657D01*
D02*
G37*
G36*
X20763Y82384D02*
X19847D01*
Y85275D01*
X18686Y82384D01*
X17963D01*
Y87616D01*
X18849D01*
Y84898D01*
X20020Y87616D01*
X20763D01*
Y82384D01*
D02*
G37*
G36*
X16009Y87657D02*
X16141Y87637D01*
X16263Y87606D01*
X16365Y87576D01*
X16467Y87535D01*
X16548Y87494D01*
X16630Y87453D01*
X16752Y87372D01*
X16833Y87301D01*
X16884Y87250D01*
X16905Y87240D01*
Y87229D01*
X17017Y87046D01*
X17108Y86843D01*
X17169Y86629D01*
X17210Y86415D01*
X17230Y86222D01*
X17240Y86140D01*
Y86069D01*
X17251Y86008D01*
Y85967D01*
Y85936D01*
Y85926D01*
Y84053D01*
X17240Y83758D01*
X17200Y83493D01*
X17139Y83269D01*
X17077Y83086D01*
X17017Y82944D01*
X16986Y82893D01*
X16955Y82842D01*
X16935Y82811D01*
X16915Y82781D01*
X16905Y82771D01*
Y82760D01*
X16833Y82679D01*
X16752Y82618D01*
X16568Y82506D01*
X16375Y82435D01*
X16182Y82373D01*
X16009Y82343D01*
X15927Y82333D01*
X15856D01*
X15805Y82323D01*
X15581D01*
X15449Y82343D01*
X15316Y82363D01*
X15204Y82384D01*
X15103Y82414D01*
X15011Y82445D01*
X14858Y82526D01*
X14736Y82598D01*
X14655Y82659D01*
X14604Y82699D01*
X14594Y82720D01*
X14482Y82882D01*
X14400Y83076D01*
X14339Y83269D01*
X14298Y83453D01*
X14278Y83626D01*
X14268Y83697D01*
X14258Y83758D01*
Y83809D01*
Y83850D01*
Y83870D01*
Y83880D01*
Y84308D01*
X15286D01*
Y83799D01*
Y83677D01*
X15296Y83565D01*
X15306Y83473D01*
X15327Y83391D01*
X15337Y83330D01*
X15357Y83290D01*
X15367Y83259D01*
Y83249D01*
X15408Y83188D01*
X15459Y83147D01*
X15510Y83106D01*
X15571Y83086D01*
X15622Y83076D01*
X15673Y83066D01*
X15713D01*
X15805Y83076D01*
X15887Y83096D01*
X15948Y83127D01*
X15998Y83157D01*
X16029Y83188D01*
X16059Y83218D01*
X16070Y83239D01*
X16080Y83249D01*
X16110Y83330D01*
X16131Y83412D01*
X16161Y83595D01*
Y83677D01*
X16172Y83738D01*
Y83778D01*
Y83799D01*
Y86181D01*
Y86303D01*
X16161Y86415D01*
X16141Y86507D01*
X16131Y86588D01*
X16110Y86639D01*
X16100Y86690D01*
X16090Y86710D01*
Y86720D01*
X16049Y86782D01*
X15998Y86832D01*
X15937Y86863D01*
X15866Y86893D01*
X15815Y86904D01*
X15764Y86914D01*
X15713D01*
X15591Y86904D01*
X15500Y86873D01*
X15449Y86832D01*
X15428Y86822D01*
X15367Y86751D01*
X15337Y86669D01*
X15316Y86608D01*
Y86598D01*
Y86588D01*
X15296Y86466D01*
X15286Y86344D01*
Y86293D01*
Y86252D01*
Y86222D01*
Y86211D01*
Y85723D01*
X14258D01*
Y86171D01*
X14268Y86425D01*
X14309Y86649D01*
X14359Y86843D01*
X14421Y86995D01*
X14492Y87117D01*
X14543Y87209D01*
X14583Y87260D01*
X14594Y87280D01*
X14655Y87352D01*
X14736Y87413D01*
X14909Y87514D01*
X15092Y87586D01*
X15276Y87626D01*
X15449Y87657D01*
X15530Y87667D01*
X15591D01*
X15642Y87677D01*
X15876D01*
X16009Y87657D01*
D02*
G37*
G36*
X83106Y47657D02*
X83238Y47637D01*
X83360Y47606D01*
X83462Y47576D01*
X83564Y47535D01*
X83645Y47494D01*
X83727Y47453D01*
X83849Y47372D01*
X83930Y47301D01*
X83981Y47250D01*
X84002Y47240D01*
Y47229D01*
X84114Y47046D01*
X84205Y46843D01*
X84266Y46629D01*
X84307Y46415D01*
X84328Y46222D01*
X84338Y46140D01*
Y46069D01*
X84348Y46008D01*
Y45967D01*
Y45937D01*
Y45926D01*
Y44053D01*
X84338Y43758D01*
X84297Y43493D01*
X84236Y43269D01*
X84175Y43086D01*
X84114Y42944D01*
X84083Y42893D01*
X84053Y42842D01*
X84032Y42811D01*
X84012Y42781D01*
X84002Y42770D01*
Y42760D01*
X83930Y42679D01*
X83849Y42618D01*
X83666Y42506D01*
X83472Y42435D01*
X83279Y42373D01*
X83106Y42343D01*
X83025Y42333D01*
X82953D01*
X82902Y42323D01*
X82678D01*
X82546Y42343D01*
X82414Y42363D01*
X82302Y42384D01*
X82200Y42414D01*
X82108Y42445D01*
X81956Y42526D01*
X81833Y42597D01*
X81752Y42658D01*
X81701Y42699D01*
X81691Y42720D01*
X81579Y42882D01*
X81498Y43076D01*
X81436Y43269D01*
X81396Y43453D01*
X81375Y43626D01*
X81365Y43697D01*
X81355Y43758D01*
Y43809D01*
Y43850D01*
Y43870D01*
Y43880D01*
Y44308D01*
X82383D01*
Y43799D01*
Y43676D01*
X82393Y43565D01*
X82403Y43473D01*
X82424Y43391D01*
X82434Y43330D01*
X82454Y43290D01*
X82465Y43259D01*
Y43249D01*
X82505Y43188D01*
X82556Y43147D01*
X82607Y43106D01*
X82668Y43086D01*
X82719Y43076D01*
X82770Y43066D01*
X82811D01*
X82902Y43076D01*
X82984Y43096D01*
X83045Y43127D01*
X83096Y43157D01*
X83126Y43188D01*
X83157Y43218D01*
X83167Y43239D01*
X83177Y43249D01*
X83208Y43330D01*
X83228Y43412D01*
X83259Y43595D01*
Y43676D01*
X83269Y43738D01*
Y43778D01*
Y43799D01*
Y46181D01*
Y46303D01*
X83259Y46415D01*
X83238Y46507D01*
X83228Y46588D01*
X83208Y46639D01*
X83197Y46690D01*
X83187Y46710D01*
Y46720D01*
X83147Y46781D01*
X83096Y46832D01*
X83035Y46863D01*
X82963Y46893D01*
X82912Y46904D01*
X82862Y46914D01*
X82811D01*
X82688Y46904D01*
X82597Y46873D01*
X82546Y46832D01*
X82526Y46822D01*
X82465Y46751D01*
X82434Y46669D01*
X82414Y46608D01*
Y46598D01*
Y46588D01*
X82393Y46466D01*
X82383Y46344D01*
Y46293D01*
Y46252D01*
Y46222D01*
Y46211D01*
Y45723D01*
X81355D01*
Y46171D01*
X81365Y46425D01*
X81406Y46649D01*
X81457Y46843D01*
X81518Y46995D01*
X81589Y47117D01*
X81640Y47209D01*
X81681Y47260D01*
X81691Y47280D01*
X81752Y47352D01*
X81833Y47413D01*
X82007Y47514D01*
X82190Y47586D01*
X82373Y47626D01*
X82546Y47657D01*
X82627Y47667D01*
X82688D01*
X82739Y47677D01*
X82974D01*
X83106Y47657D01*
D02*
G37*
G36*
X80703Y42384D02*
X78403D01*
Y43106D01*
X79645D01*
Y47616D01*
X80703D01*
Y42384D01*
D02*
G37*
G36*
X86465Y47667D02*
X86679Y47626D01*
X86862Y47565D01*
X87015Y47504D01*
X87127Y47443D01*
X87219Y47382D01*
X87270Y47341D01*
X87290Y47331D01*
X87412Y47189D01*
X87504Y47036D01*
X87575Y46863D01*
X87616Y46710D01*
X87646Y46568D01*
X87656Y46446D01*
X87666Y46405D01*
Y46374D01*
Y46354D01*
Y46344D01*
X87656Y46191D01*
X87636Y46049D01*
X87616Y45916D01*
X87585Y45814D01*
X87555Y45723D01*
X87524Y45662D01*
X87514Y45621D01*
X87504Y45611D01*
X87432Y45499D01*
X87351Y45397D01*
X87270Y45295D01*
X87188Y45204D01*
X87107Y45132D01*
X87046Y45071D01*
X87005Y45031D01*
X86995Y45020D01*
X86455Y44552D01*
X86353Y44460D01*
X86262Y44369D01*
X86190Y44287D01*
X86129Y44216D01*
X86089Y44155D01*
X86048Y44114D01*
X86038Y44084D01*
X86028Y44074D01*
X85977Y43992D01*
X85946Y43900D01*
X85905Y43727D01*
X85895Y43656D01*
X85885Y43595D01*
Y43554D01*
Y43544D01*
X85895Y43422D01*
X85926Y43320D01*
X85956Y43259D01*
X85966Y43249D01*
Y43239D01*
X85997Y43198D01*
X86038Y43178D01*
X86129Y43137D01*
X86170D01*
X86201Y43127D01*
X86231D01*
X86323Y43137D01*
X86394Y43167D01*
X86465Y43198D01*
X86516Y43249D01*
X86567Y43290D01*
X86598Y43320D01*
X86608Y43351D01*
X86618Y43361D01*
X86659Y43463D01*
X86689Y43575D01*
X86710Y43697D01*
X86730Y43819D01*
X86740Y43921D01*
X86750Y44012D01*
Y44074D01*
Y44084D01*
Y44094D01*
X87666Y43941D01*
X87656Y43788D01*
X87636Y43646D01*
X87595Y43402D01*
X87534Y43188D01*
X87463Y43015D01*
X87392Y42882D01*
X87331Y42781D01*
X87290Y42730D01*
X87280Y42709D01*
X87127Y42577D01*
X86954Y42485D01*
X86771Y42414D01*
X86598Y42373D01*
X86435Y42343D01*
X86374Y42333D01*
X86313D01*
X86262Y42323D01*
X86190D01*
X86048Y42333D01*
X85916Y42353D01*
X85793Y42373D01*
X85692Y42404D01*
X85610Y42435D01*
X85539Y42465D01*
X85498Y42475D01*
X85488Y42485D01*
X85376Y42557D01*
X85284Y42628D01*
X85193Y42699D01*
X85132Y42770D01*
X85081Y42832D01*
X85040Y42882D01*
X85020Y42923D01*
X85010Y42933D01*
X84948Y43045D01*
X84908Y43167D01*
X84877Y43279D01*
X84857Y43381D01*
X84847Y43473D01*
X84837Y43544D01*
Y43585D01*
Y43605D01*
X84847Y43778D01*
X84867Y43941D01*
X84908Y44084D01*
X84938Y44216D01*
X84979Y44308D01*
X85020Y44389D01*
X85040Y44430D01*
X85050Y44450D01*
X85132Y44583D01*
X85233Y44715D01*
X85335Y44837D01*
X85427Y44939D01*
X85508Y45031D01*
X85580Y45102D01*
X85620Y45142D01*
X85641Y45163D01*
X86170Y45621D01*
X86251Y45702D01*
X86333Y45774D01*
X86394Y45835D01*
X86435Y45896D01*
X86475Y45947D01*
X86506Y45977D01*
X86516Y45998D01*
X86526Y46008D01*
X86567Y46079D01*
X86588Y46160D01*
X86628Y46303D01*
Y46364D01*
X86638Y46415D01*
Y46446D01*
Y46456D01*
X86628Y46578D01*
X86588Y46680D01*
X86557Y46741D01*
X86547Y46751D01*
Y46761D01*
X86506Y46802D01*
X86455Y46843D01*
X86364Y46873D01*
X86323Y46883D01*
X86282Y46893D01*
X86251D01*
X86170Y46883D01*
X86109Y46863D01*
X86058Y46832D01*
X86017Y46792D01*
X85987Y46751D01*
X85966Y46720D01*
X85956Y46700D01*
Y46690D01*
X85926Y46608D01*
X85905Y46517D01*
X85875Y46313D01*
Y46232D01*
X85865Y46160D01*
Y46110D01*
Y46089D01*
X84938Y46222D01*
X84959Y46456D01*
X84999Y46659D01*
X85061Y46832D01*
X85111Y46985D01*
X85162Y47107D01*
X85213Y47199D01*
X85244Y47250D01*
X85254Y47270D01*
X85376Y47402D01*
X85519Y47504D01*
X85681Y47576D01*
X85844Y47626D01*
X85997Y47657D01*
X86119Y47667D01*
X86160Y47677D01*
X86231D01*
X86465Y47667D01*
D02*
G37*
G36*
X85091Y72384D02*
X84175D01*
Y75275D01*
X83014Y72384D01*
X82292D01*
Y77616D01*
X83177D01*
Y74898D01*
X84348Y77616D01*
X85091D01*
Y72384D01*
D02*
G37*
G36*
X86944D02*
X85885D01*
Y77616D01*
X86944D01*
Y72384D01*
D02*
G37*
G36*
X81844Y76822D02*
X81009D01*
Y72384D01*
X79950D01*
Y76822D01*
X79125D01*
Y77616D01*
X81844D01*
Y76822D01*
D02*
G37*
G36*
X20763Y32384D02*
X19847D01*
Y35275D01*
X18686Y32384D01*
X17963D01*
Y37616D01*
X18849D01*
Y34898D01*
X20020Y37616D01*
X20763D01*
Y32384D01*
D02*
G37*
G36*
X16009Y37657D02*
X16141Y37637D01*
X16263Y37606D01*
X16365Y37576D01*
X16467Y37535D01*
X16548Y37494D01*
X16630Y37453D01*
X16752Y37372D01*
X16833Y37301D01*
X16884Y37250D01*
X16905Y37240D01*
Y37229D01*
X17017Y37046D01*
X17108Y36843D01*
X17169Y36629D01*
X17210Y36415D01*
X17230Y36222D01*
X17240Y36140D01*
Y36069D01*
X17251Y36008D01*
Y35967D01*
Y35936D01*
Y35926D01*
Y34053D01*
X17240Y33758D01*
X17200Y33493D01*
X17139Y33269D01*
X17077Y33086D01*
X17017Y32944D01*
X16986Y32893D01*
X16955Y32842D01*
X16935Y32811D01*
X16915Y32781D01*
X16905Y32770D01*
Y32760D01*
X16833Y32679D01*
X16752Y32618D01*
X16568Y32506D01*
X16375Y32435D01*
X16182Y32373D01*
X16009Y32343D01*
X15927Y32333D01*
X15856D01*
X15805Y32323D01*
X15581D01*
X15449Y32343D01*
X15316Y32363D01*
X15204Y32384D01*
X15103Y32414D01*
X15011Y32445D01*
X14858Y32526D01*
X14736Y32598D01*
X14655Y32659D01*
X14604Y32699D01*
X14594Y32720D01*
X14482Y32882D01*
X14400Y33076D01*
X14339Y33269D01*
X14298Y33453D01*
X14278Y33626D01*
X14268Y33697D01*
X14258Y33758D01*
Y33809D01*
Y33850D01*
Y33870D01*
Y33880D01*
Y34308D01*
X15286D01*
Y33799D01*
Y33677D01*
X15296Y33565D01*
X15306Y33473D01*
X15327Y33391D01*
X15337Y33330D01*
X15357Y33290D01*
X15367Y33259D01*
Y33249D01*
X15408Y33188D01*
X15459Y33147D01*
X15510Y33106D01*
X15571Y33086D01*
X15622Y33076D01*
X15673Y33066D01*
X15713D01*
X15805Y33076D01*
X15887Y33096D01*
X15948Y33127D01*
X15998Y33157D01*
X16029Y33188D01*
X16059Y33219D01*
X16070Y33239D01*
X16080Y33249D01*
X16110Y33330D01*
X16131Y33412D01*
X16161Y33595D01*
Y33677D01*
X16172Y33738D01*
Y33778D01*
Y33799D01*
Y36181D01*
Y36303D01*
X16161Y36415D01*
X16141Y36507D01*
X16131Y36588D01*
X16110Y36639D01*
X16100Y36690D01*
X16090Y36710D01*
Y36720D01*
X16049Y36781D01*
X15998Y36832D01*
X15937Y36863D01*
X15866Y36893D01*
X15815Y36904D01*
X15764Y36914D01*
X15713D01*
X15591Y36904D01*
X15500Y36873D01*
X15449Y36832D01*
X15428Y36822D01*
X15367Y36751D01*
X15337Y36669D01*
X15316Y36608D01*
Y36598D01*
Y36588D01*
X15296Y36466D01*
X15286Y36344D01*
Y36293D01*
Y36252D01*
Y36222D01*
Y36211D01*
Y35723D01*
X14258D01*
Y36171D01*
X14268Y36425D01*
X14309Y36649D01*
X14359Y36843D01*
X14421Y36995D01*
X14492Y37117D01*
X14543Y37209D01*
X14583Y37260D01*
X14594Y37280D01*
X14655Y37352D01*
X14736Y37413D01*
X14909Y37514D01*
X15092Y37586D01*
X15276Y37626D01*
X15449Y37657D01*
X15530Y37667D01*
X15591D01*
X15642Y37677D01*
X15876D01*
X16009Y37657D01*
D02*
G37*
G36*
X22575Y62389D02*
X21577D01*
X21373Y63539D01*
X20549D01*
X20356Y62389D01*
X19368D01*
X20376Y67621D01*
X21557D01*
X22575Y62389D01*
D02*
G37*
G36*
X18839D02*
X17526D01*
X17301Y62399D01*
X17098Y62419D01*
X16925Y62440D01*
X16782Y62480D01*
X16670Y62511D01*
X16589Y62531D01*
X16538Y62552D01*
X16518Y62562D01*
X16385Y62633D01*
X16284Y62714D01*
X16192Y62806D01*
X16121Y62898D01*
X16070Y62979D01*
X16029Y63040D01*
X16009Y63081D01*
X15998Y63101D01*
X15948Y63244D01*
X15907Y63407D01*
X15876Y63570D01*
X15856Y63722D01*
X15846Y63855D01*
X15836Y63967D01*
Y64007D01*
Y64038D01*
Y64058D01*
Y64069D01*
Y65982D01*
X15846Y66186D01*
X15856Y66369D01*
X15887Y66532D01*
X15917Y66664D01*
X15948Y66776D01*
X15968Y66858D01*
X15988Y66899D01*
X15998Y66919D01*
X16070Y67041D01*
X16141Y67153D01*
X16233Y67245D01*
X16324Y67316D01*
X16396Y67377D01*
X16467Y67418D01*
X16508Y67438D01*
X16528Y67448D01*
X16680Y67509D01*
X16843Y67550D01*
X17017Y67581D01*
X17179Y67601D01*
X17332Y67611D01*
X17444Y67621D01*
X18839D01*
Y62389D01*
D02*
G37*
G36*
X14064Y67672D02*
X14278Y67632D01*
X14461Y67560D01*
X14614Y67489D01*
X14726Y67408D01*
X14807Y67336D01*
X14858Y67296D01*
X14879Y67275D01*
X14991Y67112D01*
X15082Y66929D01*
X15143Y66746D01*
X15184Y66563D01*
X15204Y66400D01*
X15215Y66328D01*
Y66277D01*
X15225Y66227D01*
Y66186D01*
Y66166D01*
Y66155D01*
Y63804D01*
X15204Y63560D01*
X15164Y63336D01*
X15113Y63152D01*
X15042Y63000D01*
X14980Y62867D01*
X14919Y62776D01*
X14879Y62725D01*
X14868Y62704D01*
X14716Y62572D01*
X14553Y62470D01*
X14380Y62409D01*
X14207Y62358D01*
X14054Y62328D01*
X13932Y62318D01*
X13881Y62307D01*
X13820D01*
X13586Y62328D01*
X13372Y62368D01*
X13199Y62440D01*
X13056Y62511D01*
X12945Y62582D01*
X12853Y62653D01*
X12812Y62694D01*
X12792Y62714D01*
X12670Y62877D01*
X12578Y63061D01*
X12517Y63234D01*
X12466Y63417D01*
X12446Y63570D01*
X12436Y63631D01*
Y63692D01*
X12425Y63743D01*
Y63773D01*
Y63794D01*
Y63804D01*
Y66155D01*
X12436Y66410D01*
X12476Y66634D01*
X12537Y66827D01*
X12598Y66980D01*
X12659Y67112D01*
X12720Y67204D01*
X12761Y67255D01*
X12771Y67275D01*
X12914Y67418D01*
X13077Y67519D01*
X13250Y67591D01*
X13423Y67642D01*
X13576Y67672D01*
X13647Y67682D01*
X13708D01*
X13749Y67693D01*
X13820D01*
X14064Y67672D01*
D02*
G37*
G36*
X86297Y52384D02*
X85381D01*
Y55275D01*
X84221Y52384D01*
X83498D01*
Y57616D01*
X84383D01*
Y54898D01*
X85554Y57616D01*
X86297D01*
Y52384D01*
D02*
G37*
G36*
X81543Y57657D02*
X81676Y57636D01*
X81798Y57606D01*
X81900Y57576D01*
X82001Y57535D01*
X82083Y57494D01*
X82164Y57453D01*
X82286Y57372D01*
X82368Y57301D01*
X82419Y57250D01*
X82439Y57240D01*
Y57229D01*
X82551Y57046D01*
X82643Y56842D01*
X82704Y56629D01*
X82744Y56415D01*
X82765Y56221D01*
X82775Y56140D01*
Y56069D01*
X82785Y56008D01*
Y55967D01*
Y55936D01*
Y55926D01*
Y54053D01*
X82775Y53758D01*
X82734Y53493D01*
X82673Y53269D01*
X82612Y53086D01*
X82551Y52944D01*
X82521Y52893D01*
X82490Y52842D01*
X82470Y52811D01*
X82449Y52781D01*
X82439Y52771D01*
Y52760D01*
X82368Y52679D01*
X82286Y52618D01*
X82103Y52506D01*
X81910Y52435D01*
X81716Y52373D01*
X81543Y52343D01*
X81462Y52333D01*
X81391D01*
X81340Y52323D01*
X81116D01*
X80983Y52343D01*
X80851Y52363D01*
X80739Y52384D01*
X80637Y52414D01*
X80546Y52445D01*
X80393Y52526D01*
X80271Y52597D01*
X80189Y52658D01*
X80138Y52699D01*
X80128Y52720D01*
X80016Y52882D01*
X79935Y53076D01*
X79874Y53269D01*
X79833Y53453D01*
X79813Y53626D01*
X79803Y53697D01*
X79792Y53758D01*
Y53809D01*
Y53850D01*
Y53870D01*
Y53880D01*
Y54308D01*
X80821D01*
Y53799D01*
Y53676D01*
X80831Y53565D01*
X80841Y53473D01*
X80861Y53391D01*
X80871Y53330D01*
X80892Y53290D01*
X80902Y53259D01*
Y53249D01*
X80943Y53188D01*
X80994Y53147D01*
X81044Y53106D01*
X81106Y53086D01*
X81156Y53076D01*
X81207Y53066D01*
X81248D01*
X81340Y53076D01*
X81421Y53096D01*
X81482Y53127D01*
X81533Y53157D01*
X81564Y53188D01*
X81594Y53218D01*
X81604Y53239D01*
X81615Y53249D01*
X81645Y53330D01*
X81665Y53412D01*
X81696Y53595D01*
Y53676D01*
X81706Y53738D01*
Y53778D01*
Y53799D01*
Y56181D01*
Y56303D01*
X81696Y56415D01*
X81676Y56507D01*
X81665Y56588D01*
X81645Y56639D01*
X81635Y56690D01*
X81625Y56710D01*
Y56720D01*
X81584Y56781D01*
X81533Y56832D01*
X81472Y56863D01*
X81401Y56893D01*
X81350Y56904D01*
X81299Y56914D01*
X81248D01*
X81126Y56904D01*
X81034Y56873D01*
X80983Y56832D01*
X80963Y56822D01*
X80902Y56751D01*
X80871Y56669D01*
X80851Y56608D01*
Y56598D01*
Y56588D01*
X80831Y56466D01*
X80821Y56344D01*
Y56293D01*
Y56252D01*
Y56221D01*
Y56211D01*
Y55723D01*
X79792D01*
Y56171D01*
X79803Y56425D01*
X79843Y56649D01*
X79894Y56842D01*
X79955Y56995D01*
X80026Y57117D01*
X80077Y57209D01*
X80118Y57260D01*
X80128Y57280D01*
X80189Y57351D01*
X80271Y57413D01*
X80444Y57514D01*
X80627Y57586D01*
X80810Y57626D01*
X80983Y57657D01*
X81065Y57667D01*
X81126D01*
X81177Y57677D01*
X81411D01*
X81543Y57657D01*
D02*
G37*
%LPC*%
G36*
X14268Y16868D02*
X13942D01*
X13850Y16858D01*
X13789Y16848D01*
X13728Y16838D01*
X13688Y16817D01*
X13657Y16807D01*
X13647Y16797D01*
X13637D01*
X13555Y16736D01*
X13504Y16654D01*
X13474Y16593D01*
X13464Y16583D01*
Y16573D01*
X13443Y16512D01*
X13433Y16440D01*
X13423Y16288D01*
X13413Y16227D01*
Y16176D01*
Y16135D01*
Y16125D01*
Y13957D01*
Y13845D01*
X13423Y13743D01*
Y13661D01*
X13433Y13590D01*
X13443Y13539D01*
Y13498D01*
X13453Y13478D01*
Y13468D01*
X13494Y13356D01*
X13545Y13285D01*
X13596Y13234D01*
X13606Y13213D01*
X13616D01*
X13667Y13183D01*
X13738Y13162D01*
X13871Y13142D01*
X13932Y13132D01*
X14268D01*
Y16868D01*
D02*
G37*
G36*
X20696Y56293D02*
X20381Y54186D01*
X21012D01*
X20696Y56293D01*
D02*
G37*
G36*
X21089Y46293D02*
X20773Y44186D01*
X21404D01*
X21089Y46293D01*
D02*
G37*
G36*
X17902Y46863D02*
X17576D01*
X17485Y46853D01*
X17424Y46843D01*
X17363Y46832D01*
X17322Y46812D01*
X17291Y46802D01*
X17281Y46792D01*
X17271D01*
X17189Y46731D01*
X17139Y46649D01*
X17108Y46588D01*
X17098Y46578D01*
Y46568D01*
X17077Y46507D01*
X17067Y46435D01*
X17057Y46283D01*
X17047Y46222D01*
Y46171D01*
Y46130D01*
Y46120D01*
Y43951D01*
Y43839D01*
X17057Y43738D01*
Y43656D01*
X17067Y43585D01*
X17077Y43534D01*
Y43493D01*
X17088Y43473D01*
Y43463D01*
X17128Y43351D01*
X17179Y43279D01*
X17230Y43229D01*
X17240Y43208D01*
X17251D01*
X17301Y43178D01*
X17373Y43157D01*
X17505Y43137D01*
X17566Y43127D01*
X17902D01*
Y46863D01*
D02*
G37*
G36*
X13901Y46293D02*
X13586Y44186D01*
X14217D01*
X13901Y46293D01*
D02*
G37*
G36*
X83610Y36863D02*
X83284D01*
X83192Y36853D01*
X83131Y36843D01*
X83070Y36832D01*
X83030Y36812D01*
X82999Y36802D01*
X82989Y36792D01*
X82979D01*
X82897Y36731D01*
X82846Y36649D01*
X82816Y36588D01*
X82806Y36578D01*
Y36568D01*
X82785Y36507D01*
X82775Y36435D01*
X82765Y36283D01*
X82755Y36222D01*
Y36171D01*
Y36130D01*
Y36120D01*
Y33951D01*
Y33839D01*
X82765Y33738D01*
Y33656D01*
X82775Y33585D01*
X82785Y33534D01*
Y33493D01*
X82795Y33473D01*
Y33463D01*
X82836Y33351D01*
X82887Y33279D01*
X82938Y33229D01*
X82948Y33208D01*
X82958D01*
X83009Y33178D01*
X83080Y33157D01*
X83213Y33137D01*
X83274Y33127D01*
X83610D01*
Y36863D01*
D02*
G37*
G36*
X79609Y36293D02*
X79294Y34185D01*
X79925D01*
X79609Y36293D01*
D02*
G37*
G36*
X79803Y16868D02*
X79477D01*
X79385Y16858D01*
X79324Y16848D01*
X79263Y16837D01*
X79222Y16817D01*
X79192Y16807D01*
X79181Y16797D01*
X79171D01*
X79090Y16736D01*
X79039Y16654D01*
X79009Y16593D01*
X78998Y16583D01*
Y16573D01*
X78978Y16512D01*
X78968Y16440D01*
X78958Y16288D01*
X78947Y16227D01*
Y16176D01*
Y16135D01*
Y16125D01*
Y13957D01*
Y13845D01*
X78958Y13743D01*
Y13661D01*
X78968Y13590D01*
X78978Y13539D01*
Y13498D01*
X78988Y13478D01*
Y13468D01*
X79029Y13356D01*
X79080Y13285D01*
X79131Y13234D01*
X79141Y13213D01*
X79151D01*
X79202Y13183D01*
X79273Y13162D01*
X79405Y13142D01*
X79467Y13132D01*
X79803D01*
Y16868D01*
D02*
G37*
G36*
X20966Y66298D02*
X20651Y64191D01*
X21282D01*
X20966Y66298D01*
D02*
G37*
G36*
X17780Y66868D02*
X17454D01*
X17363Y66858D01*
X17301Y66848D01*
X17240Y66838D01*
X17200Y66817D01*
X17169Y66807D01*
X17159Y66797D01*
X17149D01*
X17067Y66736D01*
X17017Y66654D01*
X16986Y66593D01*
X16976Y66583D01*
Y66573D01*
X16955Y66512D01*
X16945Y66440D01*
X16935Y66288D01*
X16925Y66227D01*
Y66176D01*
Y66135D01*
Y66125D01*
Y63956D01*
Y63845D01*
X16935Y63743D01*
Y63661D01*
X16945Y63590D01*
X16955Y63539D01*
Y63498D01*
X16965Y63478D01*
Y63468D01*
X17006Y63356D01*
X17057Y63285D01*
X17108Y63234D01*
X17118Y63213D01*
X17128D01*
X17179Y63183D01*
X17251Y63162D01*
X17383Y63142D01*
X17444Y63132D01*
X17780D01*
Y66868D01*
D02*
G37*
G36*
X13861Y66807D02*
X13820D01*
X13738Y66797D01*
X13677Y66776D01*
X13616Y66746D01*
X13576Y66715D01*
X13545Y66675D01*
X13525Y66644D01*
X13514Y66624D01*
Y66614D01*
X13464Y66461D01*
X13443Y66298D01*
X13433Y66237D01*
Y66186D01*
Y66145D01*
Y66135D01*
Y63824D01*
Y63712D01*
X13453Y63610D01*
X13464Y63519D01*
X13494Y63447D01*
X13525Y63386D01*
X13555Y63336D01*
X13626Y63254D01*
X13698Y63203D01*
X13759Y63183D01*
X13800Y63173D01*
X13820D01*
X13891Y63183D01*
X13952Y63203D01*
X14003Y63234D01*
X14044Y63275D01*
X14115Y63376D01*
X14156Y63498D01*
X14186Y63621D01*
X14197Y63722D01*
X14207Y63763D01*
Y63794D01*
Y63814D01*
Y63824D01*
Y66135D01*
Y66237D01*
X14197Y66339D01*
X14186Y66420D01*
X14166Y66481D01*
X14156Y66542D01*
X14146Y66583D01*
X14135Y66603D01*
Y66614D01*
X14105Y66675D01*
X14054Y66725D01*
X14003Y66756D01*
X13952Y66786D01*
X13901Y66797D01*
X13861Y66807D01*
D02*
G37*
%LPD*%
D11*
X24400Y80000D02*
G03*
X24900Y80500I0J500D01*
G01*
Y79500D02*
G03*
X24400Y80000I-500J0D01*
G01*
Y70000D02*
G03*
X24900Y70500I0J500D01*
G01*
Y69500D02*
G03*
X24400Y70000I-500J0D01*
G01*
Y60000D02*
G03*
X24900Y60500I0J500D01*
G01*
Y59500D02*
G03*
X24400Y60000I-500J0D01*
G01*
Y50000D02*
G03*
X24900Y50500I0J500D01*
G01*
Y49500D02*
G03*
X24400Y50000I-500J0D01*
G01*
Y40000D02*
G03*
X24900Y40500I0J500D01*
G01*
Y39500D02*
G03*
X24400Y40000I-500J0D01*
G01*
Y30000D02*
G03*
X24900Y30500I0J500D01*
G01*
Y29500D02*
G03*
X24400Y30000I-500J0D01*
G01*
Y20000D02*
G03*
X24900Y20500I0J500D01*
G01*
Y19500D02*
G03*
X24400Y20000I-500J0D01*
G01*
X22105Y10005D02*
G03*
X24900Y12800I0J2795D01*
G01*
X24895Y87205D02*
G03*
X22100Y90000I-2795J0D01*
G01*
X75100Y80500D02*
G03*
X75600Y80000I500J0D01*
G01*
D02*
G03*
X75100Y79500I0J-500D01*
G01*
Y70500D02*
G03*
X75600Y70000I500J0D01*
G01*
D02*
G03*
X75100Y69500I0J-500D01*
G01*
Y60500D02*
G03*
X75600Y60000I500J0D01*
G01*
D02*
G03*
X75100Y59500I0J-500D01*
G01*
Y50500D02*
G03*
X75600Y50000I500J0D01*
G01*
D02*
G03*
X75100Y49500I0J-500D01*
G01*
Y40500D02*
G03*
X75600Y40000I500J0D01*
G01*
D02*
G03*
X75100Y39500I0J-500D01*
G01*
Y30500D02*
G03*
X75600Y30000I500J0D01*
G01*
D02*
G03*
X75100Y29500I0J-500D01*
G01*
Y20500D02*
G03*
X75600Y20000I500J0D01*
G01*
D02*
G03*
X75100Y19500I0J-500D01*
G01*
Y12800D02*
G03*
X77895Y10005I2795J0D01*
G01*
X77900Y90000D02*
G03*
X75105Y87205I0J-2795D01*
G01*
X0Y90000D02*
X22100D01*
X0Y80000D02*
X24400D01*
X24900Y70500D02*
Y79500D01*
X0Y80000D02*
X24400D01*
X0Y70000D02*
X24400D01*
X24900Y60500D02*
Y69500D01*
X0Y70000D02*
X24400D01*
X0Y60000D02*
X24400D01*
X24900Y50500D02*
Y59500D01*
X0Y60000D02*
X24400D01*
X0Y50000D02*
X24400D01*
X24900Y40500D02*
Y49500D01*
X0Y50000D02*
X24400D01*
X0Y40000D02*
X24400D01*
X24900Y30500D02*
Y39500D01*
X0Y40000D02*
X24400D01*
X0Y30000D02*
X24400D01*
X24900Y20500D02*
Y29500D01*
X0Y30000D02*
X24400D01*
X0Y20000D02*
X24400D01*
X0Y10000D02*
X22105D01*
X0Y20000D02*
X24400D01*
X24900Y12805D02*
Y19500D01*
X24895Y12805D02*
Y87205D01*
X77900Y90000D02*
X100000D01*
X75600Y80000D02*
X100000D01*
X75100Y70500D02*
Y79500D01*
X75600Y80000D02*
X100000D01*
X75600Y70000D02*
X100000D01*
X75100Y60500D02*
Y69500D01*
X75600Y70000D02*
X100000D01*
X75600Y60000D02*
X100000D01*
X75100Y50500D02*
Y59500D01*
X75600Y60000D02*
X100000D01*
X75600Y50000D02*
X100000D01*
X75100Y40500D02*
Y49500D01*
X75600Y50000D02*
X100000D01*
X75600Y40000D02*
X100000D01*
X75100Y30500D02*
Y39500D01*
X75600Y40000D02*
X100000D01*
X75600Y30000D02*
X100000D01*
X75100Y20500D02*
Y29500D01*
X75600Y30000D02*
X100000D01*
X75600Y20000D02*
X100000D01*
X77895Y10000D02*
X100000D01*
X75600Y20000D02*
X100000D01*
X75100Y12805D02*
Y19500D01*
X75105Y12805D02*
Y87205D01*
M02*
