G04*
G04 #@! TF.GenerationSoftware,Altium Limited,Altium Designer,22.3.1 (43)*
G04*
G04 Layer_Color=8388736*
%FSLAX25Y25*%
%MOIN*%
G70*
G04*
G04 #@! TF.SameCoordinates,7A749ED4-F297-4BF6-9624-BD1DB0530FDD*
G04*
G04*
G04 #@! TF.FilePolarity,Negative*
G04*
G01*
G75*
%ADD14O,0.01181X0.02953*%
%ADD15O,0.02953X0.01181*%
%ADD16R,0.06457X0.07087*%
%ADD17R,0.04528X0.02756*%
%ADD18R,0.04724X0.02953*%
%ADD19R,0.06102X0.03937*%
%ADD20R,0.04134X0.06102*%
%ADD21R,0.04134X0.03740*%
%ADD22R,0.04252X0.03465*%
%ADD23R,0.01575X0.01378*%
%ADD24R,0.02756X0.04528*%
%ADD25R,0.03937X0.06102*%
%ADD26R,0.06102X0.04134*%
%ADD27C,0.06894*%
%ADD28R,0.06894X0.06894*%
%ADD29C,0.05394*%
D14*
X46264Y52661D02*
D03*
X47839D02*
D03*
X49413D02*
D03*
X50988D02*
D03*
X52563D02*
D03*
X54138D02*
D03*
Y65063D02*
D03*
X52563D02*
D03*
X50988D02*
D03*
X49413D02*
D03*
X47839D02*
D03*
X46264D02*
D03*
D15*
X56402Y54925D02*
D03*
Y56500D02*
D03*
Y58075D02*
D03*
Y59650D02*
D03*
Y61224D02*
D03*
Y62799D02*
D03*
X44000D02*
D03*
Y61224D02*
D03*
Y59650D02*
D03*
Y58075D02*
D03*
Y56500D02*
D03*
Y54925D02*
D03*
D16*
X50201Y58862D02*
D03*
D17*
X78331Y98000D02*
D03*
X69669Y94260D02*
D03*
Y101740D02*
D03*
X39669Y74500D02*
D03*
X48331Y78240D02*
D03*
Y70760D02*
D03*
D18*
X26724Y104240D02*
D03*
Y96760D02*
D03*
X17276D02*
D03*
Y100500D02*
D03*
Y104240D02*
D03*
D19*
X52000Y92760D02*
D03*
Y100240D02*
D03*
X49500Y13760D02*
D03*
Y21240D02*
D03*
X37500Y19260D02*
D03*
Y26740D02*
D03*
D20*
X85563Y98000D02*
D03*
X93437D02*
D03*
X32437Y74500D02*
D03*
X24563D02*
D03*
D21*
X42500Y99650D02*
D03*
Y93350D02*
D03*
D22*
X34000Y98244D02*
D03*
Y103756D02*
D03*
X9500Y102256D02*
D03*
Y96744D02*
D03*
D23*
X67500Y62000D02*
D03*
Y64165D02*
D03*
D24*
X49500Y28169D02*
D03*
X45760Y36831D02*
D03*
X53240D02*
D03*
X32500Y33669D02*
D03*
X28760Y42331D02*
D03*
X36240D02*
D03*
D25*
X53240Y45000D02*
D03*
X45760D02*
D03*
X36240Y51000D02*
D03*
X28760D02*
D03*
D26*
X56500Y78437D02*
D03*
Y70563D02*
D03*
X62000Y94126D02*
D03*
Y102000D02*
D03*
D27*
X95000Y25000D02*
D03*
Y75000D02*
D03*
Y65000D02*
D03*
Y85000D02*
D03*
Y45000D02*
D03*
Y35000D02*
D03*
Y55000D02*
D03*
Y15000D02*
D03*
X5000Y65000D02*
D03*
Y15000D02*
D03*
Y55000D02*
D03*
Y35000D02*
D03*
Y25000D02*
D03*
Y45000D02*
D03*
Y75000D02*
D03*
D28*
Y85000D02*
D03*
D29*
X64500Y73000D02*
D03*
X67000Y83000D02*
D03*
X73750Y49250D02*
D03*
X61500Y49000D02*
D03*
X70000Y10500D02*
D03*
X34000Y86500D02*
D03*
X25500Y87500D02*
D03*
M02*
